<?xml version="1.0" encoding="utf-8"?>
<!-- Generator: Adobe Illustrator 27.5.0, SVG Export Plug-In . SVG Version: 6.00 Build 0)  -->
<svg version="1.1" xmlns="http://www.w3.org/2000/svg" xmlns:xlink="http://www.w3.org/1999/xlink" x="0px" y="0px"
	 viewBox="0 0 500 500" style="enable-background:new 0 0 500 500;" xml:space="preserve">
<g id="BACKGROUND">
	<g id="BACKGROUND_1_">
		<rect x="0" style="fill:#FFFFFF;" width="500" height="500"/>
		<rect x="0" style="fill:#F2DDFD;" width="497.891" height="500"/>
		<path style="fill-rule:evenodd;clip-rule:evenodd;fill:#A478E5;" d="M253.543,253.498c1.865,0.021,3.728,0.091,5.592,0.056
			c5.228-0.102,10.441,0.533,15.674,0.302c0.574,0.125,0.765,0.509,0.733,1.058c-0.064,1.088-0.403,2.11-0.728,3.138
			c-0.129,0.406-0.422,0.56-0.813,0.571c-0.421,0.014-0.842,0.017-1.262,0.017c-7.269,0-14.536,0-21.806,0
			c-0.36,0-0.72-0.011-1.081-0.005c-0.652,0.008-1.015-0.274-1.013-0.96c0.005-1.021,0.017-2.042-0.002-3.063
			c-0.015-0.776,0.369-1.062,1.105-1.061C251.143,253.554,252.343,253.519,253.543,253.498z"/>
	</g>
</g>
<g id="OBJECTS">
	<g>
		<path style="fill-rule:evenodd;clip-rule:evenodd;fill:#B63C67;" d="M105.047,135.978c1.911,0.004,2.066,0.148,2.138,2.008
			c0.196,5.037,0.537,10.07,0.419,15.118c-0.041,1.777,0.003,1.801-1.718,2.04c-4.772,0.663-9.579,0.666-14.38,0.688
			c-2.281,0.009-4.559-0.077-6.838,0.146c-1.531,0.151-2.008-0.258-1.983-1.799c0.087-5.279-0.628-10.549-0.153-15.833
			c0.164-1.823,0.323-2.032,2.163-2.03C88.117,136.321,101.685,135.973,105.047,135.978z"/>
		<path style="fill-rule:evenodd;clip-rule:evenodd;fill:#F9EEFC;" d="M94.512,141.501c0.049,1.163,0.107,2.326,0.146,3.489
			c0.018,0.545-0.063,1.094,0.77,1.105c0.803,0.011,1.22-0.238,1.21-1.123c-0.01-0.772,0.077-1.555,0.206-2.318
			c0.065-0.381,0.177-0.935,0.703-0.9c0.534,0.035,0.535,0.579,0.539,0.978c0.024,2.276,0.02,4.552,0.024,6.827
			c0.001,0.119-0.005,0.243-0.036,0.357c-0.13,0.496-0.356,0.909-0.963,0.85c-0.51-0.049-0.7-0.429-0.737-0.874
			c-0.039-0.475-0.04-0.957-0.018-1.435c0.029-0.607-0.052-1.044-0.833-1.046c-0.696-0.001-0.97,0.274-0.958,0.953
			c0.007,0.477-0.043,0.957-0.111,1.429c-0.045,0.312-0.248,0.554-0.588,0.573c-0.444,0.026-0.644-0.279-0.691-0.66
			c-0.051-0.414-0.068-0.838-0.043-1.254c0.114-1.852,0.243-3.702,0.377-5.551C93.546,142.363,93.68,141.852,94.512,141.501z"/>
		<path style="fill-rule:evenodd;clip-rule:evenodd;fill:#F9EDFB;" d="M100,146.333c0.006-1.316-0.097-2.639,0.178-3.944
			c0.232-1.095,0.65-1.424,1.714-1.312c1.454,0.153,2.403,1.222,2.497,2.81c0.094,1.603-0.356,2.227-2.096,2.525
			c-0.688,0.118-0.928,0.341-0.915,1c0.013,0.718-0.002,1.441-0.078,2.154c-0.043,0.406-0.18,0.894-0.741,0.821
			c-0.408-0.054-0.545-0.451-0.552-0.818C99.986,148.492,100,147.412,100,146.333z"/>
		<path style="fill-rule:evenodd;clip-rule:evenodd;fill:#F9EFFC;" d="M89.334,141.23c0.546,0.007,1.058,0.121,1.538,0.405
			c0.761,0.449,1.385,1.038,1.333,1.965c-0.054,0.954-0.604,1.665-1.499,2.065c-0.163,0.073-0.333,0.176-0.503,0.181
			c-1.018,0.03-1.057,0.71-1.049,1.477c0.009,0.835-0.03,1.671-0.069,2.507c-0.017,0.373-0.146,0.741-0.597,0.704
			c-0.338-0.027-0.461-0.355-0.482-0.665c-0.066-0.952-0.176-1.908-0.151-2.859c0.036-1.373,0.073-2.736-0.042-4.112
			C87.706,141.65,88.161,141.235,89.334,141.23z"/>
		<path style="fill-rule:evenodd;clip-rule:evenodd;fill:#BF5279;" d="M101.632,145.249c-0.331-0.836-0.186-1.493-0.117-2.131
			c0.075-0.68,0.505-0.713,1.026-0.422c0.594,0.332,0.825,0.86,0.706,1.501C103.089,145.046,102.298,144.931,101.632,145.249z"/>
		<path style="fill-rule:evenodd;clip-rule:evenodd;fill:#C1567D;" d="M89.032,142.419c1.042,0.226,1.852,0.294,1.788,1.236
			c-0.037,0.542-0.701,1.031-1.18,0.847C88.609,144.105,89.428,143.237,89.032,142.419z"/>
	</g>
	<g>
		<path style="fill-rule:evenodd;clip-rule:evenodd;fill:#FC954A;" d="M94.865,90.62c0-4.333,0.027-7.457-0.011-10.581
			c-0.02-1.631,0.22-3.235,0.431-4.836c0.425-3.229,3.51-5.931,7.007-6.21c1.136-0.091,2.282-0.073,3.422-0.083
			c2.46-0.023,4.919,0.055,7.378-0.217c2.819-0.313,5.63,0.194,8.447,0.271c4.496,0.123,8.986,0.442,13.48,0.625
			c4.117,0.167,5.625,2.117,6.712,6.044c0.32,1.152,0.435,2.359,0.427,3.569c-0.012,1.983,0.022,3.966,0.009,5.948
			c-0.031,5.048,0.275,10.084,0.582,15.118c0.059,0.959,0.067,1.922,0.068,2.883c0.003,2.599-0.884,3.681-3.831,4.365
			c-1.215,0.281-2.505,0.31-3.764,0.319c-5.106,0.037-10.22,0.177-15.319-0.015c-6.247-0.234-12.49-0.091-18.735-0.203
			c-1.204-0.021-2.393-0.039-3.449-0.785c-1.497-1.055-2.409-2.35-2.593-4.275C94.71,98.175,95.034,93.79,94.865,90.62z"/>
		<path style="fill-rule:evenodd;clip-rule:evenodd;fill:#FBF1FC;" d="M132.086,86.617c0.024,0.446-0.194,0.804-0.418,1.163
			c-1.437,2.301-3.21,4.344-4.928,6.429c-0.151,0.184-0.329,0.354-0.52,0.497c-0.472,0.351-1.022,0.488-1.492,0.092
			c-0.559-0.471-0.438-1.139-0.066-1.631c0.648-0.859,1.371-1.671,2.128-2.44c0.975-0.99,1.746-2.139,2.643-3.188
			c0.451-0.526,0.402-0.906-0.109-1.351c-1.585-1.379-3.153-2.778-4.709-4.19c-0.442-0.4-0.912-0.794-1.167-1.356
			c-0.156-0.342-0.195-0.703,0.116-0.993c0.251-0.236,0.561-0.197,0.838-0.068c0.433,0.204,0.88,0.4,1.267,0.677
			c2.104,1.506,4.083,3.16,5.795,5.114C131.786,85.74,132.121,86.081,132.086,86.617z"/>
		<path style="fill-rule:evenodd;clip-rule:evenodd;fill:#FBF1FC;" d="M111.036,82.066c-0.052,0.629-0.459,1.099-0.852,1.537
			c-1.204,1.341-2.447,2.646-3.679,3.963c-0.844,0.903-0.877,0.935,0.068,1.809c1.19,1.102,2.441,2.136,3.659,3.207
			c0.494,0.436,1.009,0.854,1.349,1.44c0.237,0.41,0.242,0.804-0.08,1.161c-0.31,0.345-0.703,0.47-1.139,0.27
			c-0.325-0.149-0.66-0.309-0.935-0.531c-1.916-1.545-3.897-3.02-5.574-4.84c-1.027-1.115-1.105-2.023-0.126-2.984
			c1.67-1.639,3.406-3.214,5.124-4.804c0.396-0.367,0.822-0.728,1.394-0.773C110.623,81.49,110.97,81.577,111.036,82.066z"/>
		<path style="fill-rule:evenodd;clip-rule:evenodd;fill:#FBF0FC;" d="M115.705,80.523c0.419,0.021,0.648,0.317,0.804,0.638
			c0.418,0.862,0.856,1.721,1.184,2.62c1.168,3.213,1.949,6.558,3.25,9.728c0.278,0.676,0.367,1.351-0.427,1.679
			c-0.781,0.322-1.25-0.217-1.539-0.861c-0.418-0.929-0.828-1.867-1.16-2.829c-1.019-2.95-1.855-5.954-2.542-9.001
			c-0.106-0.474-0.202-0.937-0.142-1.421C115.175,80.741,115.337,80.523,115.705,80.523z"/>
	</g>
	<g>
		<path style="fill-rule:evenodd;clip-rule:evenodd;fill:#B63D68;" d="M185.748,44.586c-8.225,0.227-14.053-0.13-19.88,0.145
			c-0.239,0.011-0.483,0.01-0.72-0.02c-0.681-0.084-1.091-0.468-1.178-1.154c-0.085-0.68,0.197-1.175,0.834-1.429
			c0.33-0.132,0.686-0.27,1.034-0.281c1.98-0.062,3.944-0.439,5.937-0.242c0.715,0.07,1.44,0.065,2.161,0.057
			c8.951-0.099,17.901,0.01,26.85,0.109c0.48,0.005,0.969-0.019,1.438,0.061c0.652,0.111,1.078,0.528,1.156,1.205
			c0.083,0.713-0.348,1.107-0.945,1.365c-0.573,0.247-1.183,0.181-1.779,0.181C194.888,44.588,189.12,44.586,185.748,44.586z"/>
		<path style="fill-rule:evenodd;clip-rule:evenodd;fill:#FC954B;" d="M196.082,49.431c2.02-0.197,4.035,0.265,6.073,0.319
			c1.097,0.029,1.678,0.67,1.629,1.52c-0.045,0.774-0.615,1.248-1.621,1.336c-0.179,0.016-0.361,0.011-0.54,0.005
			c-5.946-0.229-11.876,0.25-17.806,0.485c-4.44,0.175-8.877,0.186-13.314,0.29c-0.874,0.021-1.658-0.116-2.331-0.718
			c-0.711-0.635-0.665-1.326,0.262-1.604c1.021-0.306,2.114-0.521,3.176-0.522c6.124-0.01,12.213-0.78,18.333-0.813
			C191.986,49.719,194.005,49.307,196.082,49.431z"/>
		<path style="fill-rule:evenodd;clip-rule:evenodd;fill:#1C5468;" d="M191.736,61.213c-4.381,0.019-8.755,0.127-13.127,0.43
			c-0.835,0.058-1.684,0.056-2.516-0.034c-0.646-0.07-1.078-0.533-1.148-1.205c-0.072-0.686,0.316-1.115,0.914-1.395
			c0.453-0.211,0.933-0.18,1.411-0.214c7.668-0.544,15.344-0.451,23.021-0.311c1.07,0.019,2.029,0.162,2.749,1.028
			c0.496,0.596,0.383,1.11-0.359,1.388c-0.678,0.254-1.402,0.313-2.126,0.313C197.615,61.213,194.676,61.213,191.736,61.213z"/>
	</g>
	<g>
		<g>
			<path style="fill-rule:evenodd;clip-rule:evenodd;fill:#CCA8FF;" d="M108.795,187.613c0.027,1.08,0.076,2.16,0.078,3.239
				c0.007,6.066-0.004,12.132,0.004,18.198c0.005,3.236-0.521,6.447-0.38,9.694c0.06,1.393-1.426,2.854-2.961,2.83
				c-2.468-0.04-4.888,0.527-7.354,0.409c-4.621-0.221-9.226,0.305-13.832,0.472c-3.353,0.123-6.709,0.105-10.058,0.263
				c-1.578,0.074-3.104-0.23-4.641-0.44c-1.789-0.244-2.719-1.316-2.961-3.119c-0.017-0.118-0.012-0.24-0.02-0.359
				c-0.419-6.89-0.404-13.789-0.335-20.686c0.024-2.491,0.201-4.981,0.313-7.472c0.035-0.785-0.031-1.558-0.249-2.315
				c0.379-0.353,0.859-0.466,1.337-0.402c5.208,0.708,10.4-0.288,15.603-0.143c4.127,0.115,8.253-0.069,12.383,0.308
				C100.081,188.487,104.434,187.699,108.795,187.613z"/>
			<path style="fill-rule:evenodd;clip-rule:evenodd;fill:#1B5467;" d="M108.795,187.613c-0.41,0.572-0.935,0.841-1.67,0.853
				c-4.547,0.073-9.087,0.307-13.645,0.124c-5.443-0.221-10.897-0.115-16.345,0.021c-3.113,0.078-6.226,0.131-9.339-0.033
				c-0.481-0.025-0.956-0.023-1.397-0.25c-0.006-1.258-0.113-2.526,0-3.773c0.251-2.768,1.689-4.297,4.435-4.89
				c3.008-0.649,6.068-0.799,9.123-0.737c6.597,0.133,13.186-0.249,19.78-0.224c1.507,0.005,2.994,0.212,4.472,0.413
				c2.509,0.34,4.313,2.247,4.685,4.777C109.077,185.134,109.335,186.387,108.795,187.613z"/>
			<path style="fill-rule:evenodd;clip-rule:evenodd;fill:#F3E6FE;" d="M90.135,213.515c0.133,1.317-0.383,2.347-1.382,3.139
				c-0.951,0.755-1.835,0.713-2.734-0.072c-1.936-1.689-1.591-5.409,0.62-6.706c0.862-0.505,2.493,0.123,3.024,1.229
				C90.027,211.858,90.245,212.67,90.135,213.515z"/>
			<path style="fill-rule:evenodd;clip-rule:evenodd;fill:#FAF0FF;" d="M93.747,198.535c0.083,1.031-0.06,2.193-1.089,3.068
				c-0.714,0.607-1.503,0.948-2.464,0.91c-1.352-0.053-2.151-0.71-2.209-2.064c-0.069-1.618-0.063-3.243-0.018-4.862
				c0.036-1.291,0.503-1.704,1.767-1.748C92.104,193.755,93.74,195.585,93.747,198.535z"/>
			<path style="fill-rule:evenodd;clip-rule:evenodd;fill:#F9F0FF;" d="M99.586,202.853c-2.999,0.028-2.961,0.028-2.998-2.906
				c-0.015-1.273,0.214-2.5,0.41-3.739c0.154-0.982,0.702-1.572,1.719-1.813c1.194-0.283,2.381-0.193,3.574-0.154
				c0.252,0.007,0.474,0.169,0.529,0.415c0.055,0.251-0.103,0.449-0.331,0.57c-0.427,0.226-0.87,0.371-1.361,0.424
				c-0.651,0.072-1.292,0.239-1.941,0.33c-0.868,0.121-0.774,0.762-0.779,1.361c-0.005,0.63,0.389,0.805,0.932,0.838
				c0.357,0.021,0.738,0.016,1.062,0.143c0.4,0.156,1.125,0.02,1.07,0.696c-0.043,0.525-0.649,0.645-1.089,0.823
				c-0.544,0.219-1.057-0.02-1.582-0.122c-0.324-0.064-0.597,0.053-0.659,0.423c-0.063,0.385,0.002,0.747,0.445,0.838
				c0.348,0.072,0.714,0.056,1.072,0.075c0.539,0.028,1.094-0.022,1.611,0.097c0.491,0.113,1.153,0.228,1.031,0.986
				c-0.092,0.58-0.593,0.698-1.098,0.712C100.666,202.865,100.127,202.853,99.586,202.853z"/>
			<path style="fill-rule:evenodd;clip-rule:evenodd;fill:#F9F0FE;" d="M85.79,198.061c-0.02,1.8-0.898,3.251-2.169,3.787
				c-1.005,0.424-1.855,0.239-2.671-0.395c-2.058-1.596-2.199-4.843-0.29-6.646c1.052-0.993,2.988-0.878,4.011,0.316
				C85.38,195.948,85.871,196.909,85.79,198.061z"/>
			<path style="fill-rule:evenodd;clip-rule:evenodd;fill:#F4E7FE;" d="M100.2,213.253c0.114,0.968-0.214,1.739-0.65,2.467
				c-0.829,1.384-2.142,1.512-3.257,0.337c-1.233-1.297-1.509-3.709-0.55-5.193c0.472-0.731,1.099-1.226,2.075-1.175
				c0.975,0.05,1.564,0.611,1.931,1.388C100.076,211.773,100.358,212.524,100.2,213.253z"/>
			<path style="fill-rule:evenodd;clip-rule:evenodd;fill:#F3E6FE;" d="M70.992,213.341c-0.151-1.418,0.076-2.669,1.243-3.598
				c0.532-0.425,1.063-0.514,1.649-0.14c2.112,1.349,2.02,5.302,0.737,6.412c-0.597,0.517-1.202,1.032-2.078,0.746
				c-0.969-0.316-1.429-1.055-1.541-2.018C70.948,214.269,70.992,213.784,70.992,213.341z"/>
			<path style="fill-rule:evenodd;clip-rule:evenodd;fill:#F9F0FF;" d="M75.757,194.56c0.462,0.023,0.882-0.031,1.048,0.371
				c0.195,0.478-0.245,0.601-0.546,0.752c-0.595,0.3-1.145,0.649-1.577,1.167c-0.877,1.049-0.976,1.896-0.333,2.956
				c0.683,1.126,1.305,1.376,2.724,1.086c0.233-0.047,0.459-0.137,0.695-0.161c0.236-0.025,0.511-0.004,0.583,0.275
				c0.038,0.147-0.022,0.352-0.104,0.492c-0.653,1.114-1.888,1.615-3.072,1.266c-1.475-0.434-3.072-2.614-3.025-4.128
				c0.046-1.475,1.614-3.552,3.006-3.965C75.382,194.602,75.623,194.583,75.757,194.56z"/>
			<path style="fill-rule:evenodd;clip-rule:evenodd;fill:#F9F0FF;" d="M104.524,212.447c0.138,0.984-0.149,1.972-0.388,2.962
				c-0.109,0.449-0.406,0.775-0.897,0.701c-0.438-0.066-0.486-0.47-0.509-0.841c-0.107-1.724-0.318-3.446,0-5.172
				c0.079-0.429,0.143-0.883,0.645-0.958c0.528-0.079,0.682,0.359,0.834,0.768C104.51,210.711,104.582,211.542,104.524,212.447z"/>
			<path style="fill-rule:evenodd;clip-rule:evenodd;fill:#F8EEFF;" d="M81.514,213.261c-0.005-1.073-0.205-2.167,0.254-3.204
				c0.153-0.349,0.293-0.678,0.746-0.614c0.413,0.058,0.635,0.368,0.678,0.738c0.061,0.535,0.086,1.083,0.045,1.619
				c-0.1,1.313-0.221,2.626-0.388,3.932c-0.05,0.389-0.142,0.936-0.645,0.96c-0.525,0.026-0.643-0.523-0.671-0.909
				C81.471,214.946,81.514,214.102,81.514,213.261z"/>
			<path style="fill-rule:evenodd;clip-rule:evenodd;fill:#F9F0FF;" d="M78.916,212.993c0,0.833,0.02,1.667-0.009,2.499
				c-0.015,0.42-0.127,0.907-0.642,0.915c-0.517,0.009-0.657-0.521-0.682-0.898c-0.083-1.245-0.091-2.495-0.104-3.744
				c-0.005-0.473,0-0.961,0.109-1.415c0.098-0.405,0.38-0.808,0.87-0.718c0.406,0.074,0.475,0.489,0.478,0.859
				c0.006,0.833,0.003,1.667,0.003,2.501C78.931,212.993,78.924,212.993,78.916,212.993z"/>
			<path style="fill-rule:evenodd;clip-rule:evenodd;fill:#F9EFFF;" d="M92.288,212.24c0-0.831-0.012-1.663,0.006-2.494
				c0.006-0.311,0.144-0.6,0.481-0.661c0.407-0.075,0.673,0.165,0.822,0.52c0.068,0.16,0.109,0.343,0.109,0.517
				c0.006,1.544,0.02,3.09-0.013,4.633c-0.011,0.48-0.169,1.025-0.799,0.951c-0.484-0.058-0.585-0.542-0.594-0.971
				c-0.017-0.831-0.004-1.663-0.004-2.496C92.293,212.24,92.29,212.24,92.288,212.24z"/>
			<path style="fill-rule:evenodd;clip-rule:evenodd;fill:#479639;" d="M97.532,182.64c0.911,0.007,1.624,0.714,1.571,1.559
				c-0.05,0.81-1.015,1.715-1.789,1.678c-0.768-0.036-1.391-0.715-1.418-1.544C95.863,183.335,96.544,182.632,97.532,182.64z"/>
			<path style="fill-rule:evenodd;clip-rule:evenodd;fill:#B23D68;" d="M93.055,184.094c0.021,0.967-0.572,1.716-1.409,1.778
				c-0.87,0.065-1.566-0.632-1.577-1.58c-0.011-0.939,0.611-1.6,1.538-1.637C92.513,182.62,93.034,183.137,93.055,184.094z"/>
			<path style="fill-rule:evenodd;clip-rule:evenodd;fill:#F4C565;" d="M103.172,185.519c-0.805-0.029-1.331-0.692-1.285-1.618
				c0.044-0.884,0.668-1.544,1.433-1.516c0.752,0.028,1.47,0.783,1.467,1.543C104.786,184.767,103.99,185.549,103.172,185.519z"/>
			<path style="fill-rule:evenodd;clip-rule:evenodd;fill:#CEAAFF;" d="M89.471,198.235c0-0.597-0.078-1.207,0.019-1.789
				c0.121-0.729,0.692-0.921,1.35-0.549c1.379,0.781,1.807,2.77,0.86,4.078c-0.423,0.585-1.026,0.837-1.734,0.67
				c-0.752-0.178-0.511-0.833-0.551-1.333c-0.028-0.356-0.005-0.717-0.005-1.077C89.43,198.235,89.451,198.235,89.471,198.235z"/>
			<path style="fill-rule:evenodd;clip-rule:evenodd;fill:#CDAAFF;" d="M83.975,198.016c-0.019,1.106-0.654,1.965-1.449,1.96
				c-0.861-0.003-1.75-1.125-1.743-2.194c0.007-1.012,0.72-1.804,1.619-1.797C83.32,195.992,83.994,196.862,83.975,198.016z"/>
		</g>
		<path style="fill-rule:evenodd;clip-rule:evenodd;fill:#CCA8FF;" d="M72.039,213.231c-0.081-0.759,0.041-1.428,0.665-1.925
			c0.285-0.227,0.569-0.275,0.882-0.075c1.13,0.722,1.081,2.837,0.395,3.431c-0.319,0.276-0.644,0.552-1.112,0.399
			c-0.519-0.169-0.765-0.564-0.824-1.079C72.016,213.727,72.039,213.468,72.039,213.231z"/>
		<path style="fill-rule:evenodd;clip-rule:evenodd;fill:#CCA8FF;" d="M86.177,213.231c-0.081-0.759,0.041-1.428,0.665-1.925
			c0.285-0.227,0.569-0.275,0.882-0.075c1.13,0.722,1.081,2.837,0.395,3.431c-0.319,0.276-0.644,0.552-1.112,0.399
			c-0.519-0.169-0.765-0.564-0.824-1.079C86.153,213.727,86.177,213.468,86.177,213.231z"/>
		<path style="fill-rule:evenodd;clip-rule:evenodd;fill:#CCA8FF;" d="M96.575,213.504c-0.081-0.759,0.041-1.428,0.665-1.925
			c0.285-0.227,0.569-0.275,0.882-0.075c1.13,0.722,1.081,2.837,0.395,3.431c-0.319,0.276-0.644,0.552-1.112,0.399
			c-0.519-0.169-0.765-0.564-0.824-1.079C96.552,214.001,96.575,213.741,96.575,213.504z"/>
	</g>
	<g>
		<path style="fill-rule:evenodd;clip-rule:evenodd;fill:#1B5467;" d="M295.086,54.204c-0.159,6.404-0.271,11.088-0.389,15.77
			c-0.081,3.203-1.386,4.742-4.527,5.233c-0.943,0.147-1.914,0.157-2.872,0.173c-5.71,0.095-11.417-0.161-17.103-0.557
			c-5.28-0.368-10.563-0.062-15.834-0.394c-1.019-0.064-2.049-0.108-3.043-0.312c-2.424-0.494-3.671-1.912-3.689-4.391
			c-0.026-3.722,0.04-7.446,0.164-11.167c0.076-2.284,0.099-4.564,0.036-6.844c-0.093-3.426-0.057-6.843,0.26-10.259
			c0.322-3.49,1.748-5.032,5.255-5.486c2.683-0.348,5.393-0.396,8.09-0.439c8.715-0.138,17.405,0.5,26.097,1.057
			c1.378,0.088,2.762,0.109,4.139,0.214c2.211,0.167,2.908,0.784,3.494,2.94c0.272,0.999,0.284,2.017,0.309,3.038
			C295.57,47.171,295.202,51.544,295.086,54.204z"/>
		<path style="fill-rule:evenodd;clip-rule:evenodd;fill:#F8F0FD;" d="M275.679,56.321c0.52-1.807,0.778-3.606,1.603-5.232
			c0.241-0.474,0.372-1.087,1.094-0.983c0.589,0.085,0.661,0.608,0.785,1.078c0.672,2.555,1.357,5.105,2.025,7.661
			c0.137,0.522,0.321,1.146-0.428,1.33c-0.668,0.165-0.991-0.37-1.148-0.901c-0.323-1.092-0.565-2.209-0.866-3.309
			c-0.217-0.786-0.26-1.637-0.894-2.568c-0.455,1.902-0.85,3.564-1.253,5.224c-0.099,0.407-0.178,0.831-0.357,1.204
			c-0.252,0.525-0.854,0.569-1.112,0.055c-0.318-0.64-0.54-1.336-0.738-2.026c-0.396-1.371-0.747-2.755-1.333-4.112
			c-0.245,1.51-0.491,3.021-0.736,4.532c-0.048,0.297-0.035,0.617-0.146,0.887c-0.16,0.396-0.079,1.109-0.749,1
			c-0.518-0.085-0.387-0.673-0.358-1.058c0.191-2.576,0.431-5.147,1.03-7.669c0.109-0.458,0.153-1.016,0.756-1.097
			c0.693-0.093,0.89,0.476,1.12,0.968c0.54,1.151,0.819,2.381,1.103,3.611C275.178,55.365,275.066,55.899,275.679,56.321z"/>
		<path style="fill-rule:evenodd;clip-rule:evenodd;fill:#F4EDFA;" d="M257.79,49.057c0.794,1.619,0.117,3.463,0.473,5.141
			c0.127,0.084,0.219,0.201,0.31,0.2c2.424-0.044,2.146,0.369,2.31-2.185c0.051-0.777,0.118-1.554,0.197-2.329
			c0.031-0.318,0.201-0.58,0.55-0.598c0.332-0.018,0.604,0.194,0.668,0.493c0.099,0.462,0.156,0.949,0.134,1.42
			c-0.114,2.455-0.246,4.91-0.403,7.363c-0.04,0.629,0.029,1.53-0.886,1.486c-0.927-0.045-0.744-0.9-0.699-1.547
			c0.029-0.418,0.127-0.838,0.106-1.253c-0.022-0.436,0.313-1.037-0.323-1.259c-0.566-0.199-1.199-0.19-1.776-0.023
			c-0.31,0.09-0.28,0.485-0.292,0.785c-0.039,0.958-0.048,1.918-0.138,2.871c-0.033,0.337-0.221,0.744-0.666,0.721
			c-0.42-0.02-0.6-0.367-0.605-0.749c-0.064-3.358-0.05-6.715,0.389-10.054C257.171,49.291,257.324,49.1,257.79,49.057z"/>
		<path style="fill-rule:evenodd;clip-rule:evenodd;fill:#F3EDFA;" d="M285.158,54.685c0,1.078,0.03,2.158-0.01,3.234
			c-0.032,0.815,0.219,1.24,1.113,1.179c0.656-0.045,1.32,0.021,1.924,0.34c0.287,0.153,0.453,0.392,0.416,0.72
			c-0.036,0.333-0.269,0.585-0.57,0.611c-1.188,0.103-2.389,0.31-3.574,0.077c-0.878-0.171-0.985-0.903-1.006-1.676
			c-0.052-1.981,0.111-3.951,0.264-5.921c0.05-0.657,0.046-1.32,0.138-1.971c0.069-0.499-0.007-1.247,0.716-1.248
			c0.762,0,0.633,0.73,0.643,1.238c0.023,1.138,0.007,2.277,0.007,3.415C285.199,54.685,285.179,54.685,285.158,54.685z"/>
		<path style="fill-rule:evenodd;clip-rule:evenodd;fill:#F5EFFB;" d="M265.94,55.514c0.072-1.267,0.114-2.342,0.198-3.414
			c0.059-0.768-0.075-1.32-1.026-1.214c-0.117,0.012-0.239-0.008-0.357-0.023c-0.387-0.049-0.722-0.213-0.736-0.635
			c-0.02-0.504,0.347-0.785,0.793-0.797c1.551-0.042,3.105-0.051,4.657-0.025c0.449,0.008,0.824,0.309,0.786,0.801
			c-0.028,0.38-0.378,0.534-0.746,0.657c-0.535,0.177-1.309-0.217-1.588,0.503c-0.186,0.483-0.142,1.057-0.194,1.589
			c-0.183,1.843-0.357,3.687-0.548,5.529c-0.043,0.413-0.11,0.826-0.214,1.226c-0.059,0.225-0.218,0.419-0.505,0.409
			c-0.328-0.012-0.378-0.278-0.39-0.499c-0.059-1.013-0.093-2.027-0.127-3.042C265.93,56.159,265.94,55.741,265.94,55.514z"/>
	</g>
	<g>
		<path style="fill-rule:evenodd;clip-rule:evenodd;fill:#263A76;" d="M321.373,100.983c16.232,0,32.463-0.002,48.694,0.003
			c1.999,0,2.476,0.456,2.407,2.435c-0.7,20.07-0.318,40.149-0.523,60.224c-0.006,0.48,0.031,0.976-0.079,1.435
			c-0.185,0.766-0.882,1.022-1.532,0.561c-0.486-0.345-0.917-0.78-1.327-1.216c-2.553-2.714-5.138-5.401-7.615-8.184
			c-0.889-0.999-1.799-1.322-3.121-1.281c-14.721,0.443-29.446,0.684-44.174,0.897c-13.223,0.191-26.445,0.423-39.667,0.63
			c-2.629,0.041-2.999-0.268-3.212-2.906c-0.165-2.036-0.264-4.081-0.295-6.122c-0.226-14.666-0.426-29.333-0.634-43.999
			c-0.006-0.42-0.016-0.845,0.038-1.26c0.107-0.831,0.566-1.271,1.449-1.27c1.262,0.003,2.524-0.041,3.786-0.067
			C290.836,100.555,306.105,100.715,321.373,100.983z"/>
		<path style="fill-rule:evenodd;clip-rule:evenodd;fill:#CBA7FE;" d="M304.267,107.22c-6.842,0.054-13.683,0.297-20.523-0.017
			c-0.36-0.016-0.72-0.027-1.078-0.057c-0.643-0.054-1.249-0.252-1.267-1.001c-0.019-0.765,0.644-0.946,1.238-1.064
			c0.466-0.093,0.953-0.105,1.432-0.116c13.384-0.282,26.767-0.448,40.152-0.411c0.601,0.002,1.205-0.008,1.797,0.077
			c0.574,0.083,1.007,0.438,1.062,1.056c0.064,0.727-0.402,1.13-1.035,1.26c-0.581,0.12-1.191,0.119-1.789,0.124
			c-6.002,0.055-12.005,0.1-18.008,0.148C305.588,107.223,304.927,107.22,304.267,107.22z"/>
		<path style="fill-rule:evenodd;clip-rule:evenodd;fill:#FA944A;" d="M302.06,150.825c-7.505,0.195-15.008,0.391-22.511,0.588
			c-0.905,0.023-1.802-0.023-2.666-0.323c-0.294-0.1-0.54-0.27-0.503-0.637c0.03-0.281,0.263-0.38,0.479-0.48
			c0.672-0.307,1.396-0.359,2.112-0.4c3.418-0.196,6.833-0.43,10.252-0.542c10.084-0.329,20.169-0.605,30.253-0.907
			c1.981-0.06,3.961-0.149,5.941-0.221c0.359-0.012,0.721-0.002,1.081-0.003c0.662-0.003,1.252,0.176,1.284,0.939
			c0.032,0.802-0.647,0.912-1.246,1.015c-0.352,0.062-0.717,0.075-1.075,0.088c-7.801,0.281-15.602,0.558-23.403,0.836
			C302.06,150.794,302.06,150.809,302.06,150.825z"/>
		<path style="fill-rule:evenodd;clip-rule:evenodd;fill:#FA944A;" d="M296.376,113.537c-6.073,0-12.147,0.003-18.22-0.006
			c-0.598-0.002-1.204-0.037-1.791-0.145c-0.516-0.094-1.15-0.193-1.127-0.922c0.022-0.607,0.57-0.72,1.038-0.818
			c0.467-0.099,0.947-0.165,1.425-0.18c12.502-0.384,25.008-0.423,37.514-0.478c0.062-0.001,0.121-0.001,0.182,0.001
			c1.209,0.047,1.693,0.362,1.73,1.124c0.038,0.775-0.456,1.168-1.633,1.223c-1.381,0.063-2.764,0.121-4.147,0.125
			c-4.99,0.016-9.98,0.006-14.971,0.006C296.376,113.491,296.376,113.513,296.376,113.537z"/>
		<path style="fill-rule:evenodd;clip-rule:evenodd;fill:#FA944A;" d="M296.505,139.468c-6.208,0.141-11.906,0.273-17.603,0.394
			c-0.719,0.015-1.443,0.04-2.147-0.164c-0.356-0.103-0.719-0.234-0.762-0.657c-0.051-0.513,0.31-0.796,0.744-0.853
			c1.248-0.164,2.503-0.331,3.757-0.379c4.736-0.182,9.476-0.309,14.212-0.473c6.116-0.212,12.23-0.442,18.347-0.659
			c0.539-0.02,1.082-0.03,1.619,0.004c0.673,0.042,1.171,0.378,1.192,1.094c0.021,0.739-0.503,1.058-1.163,1.107
			c-1.315,0.099-2.634,0.18-3.951,0.22C305.832,139.251,300.908,139.19,296.505,139.468z"/>
		<path style="fill-rule:evenodd;clip-rule:evenodd;fill:#FDCA65;" d="M289.638,145.349c-3.846,0.117-7.684,0.395-11.533,0.336
			c-0.596-0.009-1.209,0.065-1.753-0.282c-0.621-0.395-0.633-1.067,0.012-1.427c0.587-0.329,1.254-0.388,1.921-0.423
			c4.139-0.216,8.278-0.475,12.42-0.65c5.163-0.219,10.331-0.374,15.496-0.547c0.538-0.019,1.081-0.011,1.615,0.05
			c0.459,0.052,0.756,0.366,0.831,0.826c0.092,0.551-0.192,0.907-0.668,1.148c-0.392,0.199-0.813,0.183-1.232,0.201
			C301.042,144.838,295.34,145.094,289.638,145.349z"/>
		<path style="fill-rule:evenodd;clip-rule:evenodd;fill:#489738;" d="M285.237,133.457c-2.825,0-5.649,0.015-8.474-0.01
			c-0.741-0.006-1.674,0.204-1.898-0.881c-0.132-0.643,0.643-1.133,1.886-1.259c0.238-0.024,0.48-0.02,0.721-0.026
			c6.602-0.161,13.198-0.479,19.806-0.443c2.154,0.012,4.304-0.341,6.469-0.271c1.566,0.051,2.18,0.404,2.125,1.311
			c-0.051,0.822-0.602,1.148-2.09,1.177c-1.381,0.026-2.764,0.015-4.146,0.028C294.834,133.127,290.044,133.65,285.237,133.457z"/>
		<path style="fill-rule:evenodd;clip-rule:evenodd;fill:#CAA7FE;" d="M307.158,127.193c-4.447,0.056-8.894,0.122-13.341,0.16
			c-0.764,0.007-1.655,0.1-1.941-0.888c-0.169-0.58,0.518-1.078,1.92-1.183c2.814-0.21,5.638-0.355,8.46-0.455
			c6.128-0.214,12.256-0.383,18.385-0.571c1.463-0.045,2.08,0.25,2.159,1.04c0.088,0.858-0.571,1.259-2.129,1.315
			c-4.506,0.161-9.01,0.327-13.515,0.491C307.156,127.133,307.157,127.163,307.158,127.193z"/>
		<path style="fill-rule:evenodd;clip-rule:evenodd;fill:#489739;" d="M279.777,120.761c-1.623-0.035-2.887,0.094-4.122-0.275
			c-0.428-0.128-0.814-0.25-0.813-0.79c0.003-0.512,0.368-0.75,0.776-0.868c0.397-0.115,0.821-0.163,1.236-0.179
			c5.21-0.207,10.421-0.336,15.633-0.456c4.133-0.095,8.264-0.284,12.398-0.281c1.517,0.002,2.073,0.334,2.015,1.15
			c-0.056,0.74-0.546,0.946-1.978,1.029c-6.887,0.402-13.783,0.312-20.677,0.407C282.635,120.521,281.036,120.906,279.777,120.761z"
			/>
		<path style="fill-rule:evenodd;clip-rule:evenodd;fill:#F8944B;" d="M343.38,143.822c-5.864,0.427-10.551,0.345-15.233,0.394
			c-0.719,0.008-1.443,0.004-2.157-0.079c-0.463-0.053-1.03-0.182-1.014-0.805c0.013-0.517,0.504-0.614,0.923-0.687
			c0.472-0.081,0.95-0.131,1.425-0.193c3.768-0.492,7.557-0.317,11.336-0.341c6.065-0.039,12.131-0.019,18.192-0.314
			c0.653-0.032,1.326-0.09,1.964,0.141c0.424,0.154,0.727,0.431,0.722,0.923c-0.007,0.507-0.363,0.756-0.777,0.87
			c-0.338,0.094-0.711,0.086-1.07,0.087C352.524,143.823,347.36,143.822,343.38,143.822z"/>
		<path style="fill-rule:evenodd;clip-rule:evenodd;fill:#489738;" d="M340.666,127.32c-1.564,0-3.127,0.004-4.689-0.002
			c-0.36-0.001-0.725-0.009-1.079-0.061c-0.457-0.066-0.793-0.333-0.836-0.808c-0.045-0.499,0.294-0.793,0.733-0.882
			c0.82-0.168,1.657-0.399,2.481-0.383c3.251,0.061,6.48-0.308,9.711-0.507c3.963-0.245,7.923-0.201,11.884-0.292
			c0.479-0.011,0.964-0.017,1.441,0.021c0.607,0.048,1.033,0.362,1.063,1.006c0.033,0.737-0.41,1.101-1.099,1.164
			c-1.313,0.12-2.627,0.234-3.943,0.308c-0.9,0.049-1.805,0.056-2.705,0.029C349.3,126.781,344.996,127.451,340.666,127.32z"/>
		<path style="fill-rule:evenodd;clip-rule:evenodd;fill:#FDCA65;" d="M343.037,113.277c-3.236,0-6.477,0.012-9.714-0.006
			c-1.423-0.008-1.952-0.315-1.968-1.042c-0.016-0.716,0.556-1.078,1.93-1.145c6.65-0.323,13.306-0.4,19.962-0.397
			c0.121,0,0.24-0.006,0.36,0.002c1.043,0.068,1.607,0.471,1.5,1.14c-0.129,0.804-0.747,1.006-1.462,1.029
			c-3.295,0.107-6.593,0.216-9.889,0.322c-0.239,0.008-0.479,0.002-0.72,0.002C343.037,113.213,343.037,113.245,343.037,113.277z"/>
		<path style="fill-rule:evenodd;clip-rule:evenodd;fill:#F9944A;" d="M338.992,117.651c2.633-0.103,5.267-0.203,7.902-0.313
			c0.542-0.022,1.08-0.024,1.59,0.194c0.498,0.212,0.738,0.596,0.693,1.135c-0.039,0.481-0.372,0.747-0.783,0.884
			c-0.275,0.092-0.586,0.099-0.884,0.111c-5.864,0.255-11.725,0.613-17.602,0.378c-0.597-0.024-1.198,0.012-1.771-0.216
			c-0.353-0.14-0.66-0.314-0.683-0.733c-0.023-0.425,0.267-0.652,0.621-0.776c0.682-0.24,1.388-0.356,2.112-0.38
			c2.935-0.1,5.869-0.21,8.803-0.317C338.991,117.629,338.991,117.641,338.992,117.651z"/>
		<path style="fill-rule:evenodd;clip-rule:evenodd;fill:#C9A7FD;" d="M327.539,138.575c-2.283,0-4.568,0.023-6.853-0.015
			c-0.679-0.012-1.696,0.141-1.752-0.808c-0.065-1.089,1.02-1.004,1.749-1.063c6.353-0.508,12.723-0.658,19.094-0.742
			c0.181-0.003,0.362,0,0.54,0.02c0.613,0.07,1.032,0.393,1.048,1.026c0.017,0.658-0.476,0.928-1.038,1.05
			c-0.29,0.063-0.598,0.06-0.897,0.067C335.464,138.203,331.509,138.576,327.539,138.575z"/>
		<path style="fill-rule:evenodd;clip-rule:evenodd;fill:#FDCA65;" d="M324.132,132.758c-1.618,0-3.236,0.007-4.854-0.005
			c-0.417-0.003-0.839-0.043-1.249-0.117c-0.377-0.066-0.672-0.289-0.69-0.709c-0.019-0.413,0.236-0.674,0.607-0.781
			c0.398-0.116,0.811-0.214,1.224-0.249c5.256-0.437,10.526-0.579,15.797-0.67c0.06-0.001,0.119-0.002,0.18,0
			c1.23,0.036,1.827,0.372,1.741,1.055c-0.122,0.956-0.892,1.023-1.628,1.015C331.541,132.256,327.854,132.943,324.132,132.758z"/>
		<path style="fill-rule:evenodd;clip-rule:evenodd;fill:#C4A4F9;" d="M349.882,130.672c2.277,0,4.557-0.001,6.835,0.001
			c0.419,0.001,0.841-0.001,1.255,0.045c0.51,0.057,0.941,0.26,0.983,0.856c0.043,0.6-0.374,0.858-0.856,0.987
			c-0.342,0.091-0.712,0.099-1.07,0.099c-4.197,0-8.393,0.011-12.59-0.024c-0.955-0.008-1.908-0.172-2.859-0.285
			c-0.546-0.065-1.203-0.177-1.199-0.84c0.004-0.705,0.743-0.674,1.238-0.771c0.523-0.105,1.069-0.121,1.607-0.124
			c2.218-0.012,4.436-0.005,6.656-0.005C349.882,130.632,349.882,130.652,349.882,130.672z"/>
		<path style="fill-rule:evenodd;clip-rule:evenodd;fill:#489639;" d="M353.792,138.495c-2.561-0.187-5.447,0.213-8.3-0.325
			c-0.233-0.044-0.479-0.045-0.709-0.105c-0.305-0.08-0.545-0.264-0.569-0.605c-0.023-0.354,0.23-0.54,0.515-0.648
			c0.22-0.083,0.465-0.105,0.701-0.129c4.956-0.505,9.928-0.275,14.896-0.338c0.119-0.001,0.239-0.001,0.358,0.011
			c1.1,0.121,1.822,0.593,1.723,1.22c-0.172,1.105-1.082,0.912-1.838,0.915C358.412,138.501,356.255,138.495,353.792,138.495z"/>
		<path style="fill-rule:evenodd;clip-rule:evenodd;fill:#F8C865;" d="M317.078,117.942c1.738,0,3.475-0.007,5.211,0.004
			c0.416,0.002,0.847,0.001,1.242,0.108c0.418,0.115,0.712,0.437,0.765,0.903c0.061,0.538-0.171,0.926-0.647,1.169
			c-0.382,0.196-0.797,0.241-1.22,0.251c-3.834,0.095-7.668,0.155-11.495-0.179c-0.695-0.061-1.677,0.035-1.712-0.897
			c-0.042-1.096,1.024-1.002,1.752-1.02c2.034-0.052,4.069-0.018,6.103-0.018C317.077,118.157,317.078,118.049,317.078,117.942z"/>
		<path style="fill-rule:evenodd;clip-rule:evenodd;fill:#FCCA65;" d="M354.53,149.581c-2.336,0-4.672,0.015-7.007-0.009
			c-0.654-0.007-1.307-0.118-1.959-0.206c-0.247-0.034-0.434-0.201-0.49-0.46c-0.072-0.343,0.12-0.559,0.391-0.723
			c0.425-0.256,0.9-0.284,1.383-0.326c5.143-0.441,10.3-0.265,15.451-0.382c0.237-0.005,0.482-0.002,0.716,0.035
			c0.469,0.073,0.775,0.375,0.806,0.832c0.041,0.563-0.316,0.88-0.846,0.977c-0.292,0.053-0.597,0.054-0.895,0.055
			c-2.516,0.003-5.033,0.001-7.55,0.001C354.529,149.445,354.529,149.513,354.53,149.581z"/>
		<path style="fill-rule:evenodd;clip-rule:evenodd;fill:#489639;" d="M355.91,107.801c-1.74,0-3.483-0.021-5.225,0.009
			c-0.856,0.016-1.657-0.248-2.484-0.377c-0.51-0.08-0.997-0.338-0.94-0.895c0.051-0.488,0.583-0.547,1.01-0.535
			c1.745,0.053,3.467-0.28,5.203-0.316c2.762-0.057,5.524-0.054,8.287-0.073c0.36-0.002,0.722-0.004,1.08,0.026
			c0.521,0.044,0.942,0.27,1.029,0.83c0.09,0.584-0.319,0.85-0.784,1.058c-0.511,0.226-1.051,0.233-1.592,0.233
			c-1.861,0-3.724,0-5.585,0C355.91,107.773,355.91,107.788,355.91,107.801z"/>
		<path style="fill-rule:evenodd;clip-rule:evenodd;fill:#CAA7FE;" d="M359.685,119.766c-1.801,0.001-3.603,0.008-5.403-0.005
			c-0.478-0.003-0.961-0.041-1.433-0.122c-0.483-0.083-1.002-0.267-0.96-0.863c0.032-0.487,0.537-0.644,0.939-0.707
			c0.888-0.136,1.788-0.2,2.683-0.286c3.353-0.32,6.72-0.202,10.079-0.265c0.239-0.004,0.484-0.002,0.717,0.044
			c0.614,0.123,0.945,0.517,0.917,1.141c-0.025,0.541-0.358,0.89-0.881,0.993c-0.349,0.07-0.716,0.065-1.075,0.067
			C363.407,119.769,361.545,119.766,359.685,119.766z"/>
		<path style="fill-rule:evenodd;clip-rule:evenodd;fill:#F8C765;" d="M323.901,113.159c-0.774-0.041-2.035,0.083-3.284-0.149
			c-0.638-0.118-1.247-0.345-1.232-1.066c0.017-0.725,0.658-0.929,1.286-1.014c2.325-0.314,4.664-0.214,6.999-0.189
			c0.736,0.008,1.288,0.42,1.271,1.221c-0.017,0.802-0.604,1.152-1.326,1.184C326.54,113.192,325.46,113.159,323.901,113.159z"/>
		<path style="fill-rule:evenodd;clip-rule:evenodd;fill:#F3924B;" d="M341.305,107.826c-0.183-0.01-0.791,0.012-1.377-0.091
			c-0.584-0.102-0.952-0.5-0.94-1.136c0.012-0.545,0.318-0.914,0.833-1.039c1.241-0.3,2.499-0.275,3.743-0.04
			c0.581,0.11,0.955,0.512,0.932,1.15c-0.023,0.729-0.501,1.072-1.156,1.144C342.808,107.872,342.261,107.826,341.305,107.826z"/>
		<path style="fill-rule:evenodd;clip-rule:evenodd;fill:#C6A5FB;" d="M286.2,127.4c-0.633-0.059-1.241-0.056-1.82-0.189
			c-0.413-0.094-0.743-0.421-0.745-0.905c-0.001-0.393,0.239-0.695,0.583-0.84c1.194-0.503,2.456-0.496,3.712-0.361
			c0.538,0.057,0.807,0.513,0.835,1.03c0.03,0.554-0.344,0.934-0.816,1.06C287.379,127.346,286.767,127.341,286.2,127.4z"/>
		<path style="fill-rule:evenodd;clip-rule:evenodd;fill:#FBC965;" d="M311.295,132.954c-0.626-0.078-1.337-0.145-2.038-0.263
			c-0.393-0.065-0.611-0.371-0.647-0.755c-0.039-0.407,0.214-0.71,0.565-0.808c1.264-0.352,2.561-0.499,3.865-0.364
			c0.505,0.053,0.83,0.469,0.809,1.023c-0.019,0.549-0.345,0.884-0.87,0.975C312.452,132.852,311.916,132.885,311.295,132.954z"/>
		<path style="fill-rule:evenodd;clip-rule:evenodd;fill:#47963A;" d="M340.026,149.706c-0.755-0.049-1.428,0.056-2.035-0.274
			c-0.32-0.174-0.602-0.417-0.615-0.814c-0.013-0.419,0.294-0.617,0.631-0.774c1.142-0.533,2.342-0.408,3.519-0.245
			c0.503,0.069,0.773,0.544,0.729,1.089c-0.045,0.547-0.368,0.881-0.902,0.95C340.88,149.698,340.399,149.689,340.026,149.706z"/>
		<path style="fill-rule:evenodd;clip-rule:evenodd;fill:#F1C266;" d="M276.69,104.29c0.491-0.021,0.969,0.054,1.384,0.321
			c0.875,0.565,0.825,1.67-0.072,2.208c-0.443,0.266-0.924,0.239-1.4,0.217c-1.136-0.053-1.802-0.548-1.835-1.333
			C274.729,104.848,275.477,104.299,276.69,104.29z"/>
		<path style="fill-rule:evenodd;clip-rule:evenodd;fill:#C5A5FB;" d="M277.512,127.305c-0.536,0-1.077,0.039-1.609-0.012
			c-0.371-0.036-0.661-0.27-0.711-0.686c-0.039-0.324,0.112-0.571,0.344-0.781c0.66-0.599,3.002-0.912,3.781-0.499
			c0.471,0.248,0.71,0.63,0.619,1.171c-0.092,0.553-0.46,0.827-0.991,0.861c-0.476,0.031-0.955,0.007-1.433,0.007
			C277.512,127.346,277.512,127.326,277.512,127.305z"/>
		<path style="fill-rule:evenodd;clip-rule:evenodd;fill:#F7944B;" d="M333.107,107.574c-0.387-0.027-0.809-0.02-1.214-0.094
			c-0.53-0.097-0.814-0.459-0.849-0.998c-0.029-0.464,0.17-0.862,0.583-1.014c1.029-0.378,2.105-0.347,3.148-0.077
			c0.493,0.127,0.736,0.6,0.686,1.127c-0.051,0.532-0.377,0.877-0.905,0.954C334.089,107.542,333.611,107.542,333.107,107.574z"/>
		<path style="fill-rule:evenodd;clip-rule:evenodd;fill:#F3924C;" d="M328.271,127.004c-0.237-0.015-0.479-0.001-0.709-0.052
			c-0.572-0.125-1.331-0.172-1.4-0.869c-0.074-0.764,0.652-1.105,1.273-1.259c0.559-0.139,1.179-0.104,1.764-0.051
			c0.578,0.053,1.03,0.408,1.065,1.014c0.039,0.714-0.463,1.046-1.107,1.163C328.87,127.003,328.568,126.987,328.271,127.004z"/>
		<path style="fill-rule:evenodd;clip-rule:evenodd;fill:#47943B;" d="M360.339,111.054c0.722,0.092,1.25,0.406,1.267,1.094
			c0.017,0.609-0.486,0.905-1.049,1.042c-0.056,0.015-0.116,0.021-0.177,0.023c-0.786,0.037-1.571,0.042-2.1-0.681
			c-0.146-0.197-0.13-0.479,0.035-0.671C358.86,111.215,359.608,111.069,360.339,111.054z"/>
		<path style="fill-rule:evenodd;clip-rule:evenodd;fill:#BEA1F6;" d="M313.01,142.2c0.422,0.001,0.828,0.075,1.169,0.335
			c0.515,0.391,0.505,1.119-0.01,1.513c-0.348,0.265-0.76,0.295-1.177,0.298c-0.746,0.006-1.466-0.122-1.685-0.957
			C311.16,142.822,312.094,142.208,313.01,142.2z"/>
		<path style="fill-rule:evenodd;clip-rule:evenodd;fill:#C5A5FB;" d="M319.874,143.957c-0.179,0-0.359,0.002-0.54-0.001
			c-0.606-0.01-1.104-0.24-1.125-0.897c-0.024-0.757,0.524-1.029,1.189-1.043c0.478-0.009,0.96,0.037,1.432,0.105
			c0.533,0.077,0.891,0.397,0.892,0.954c0.001,0.594-0.419,0.818-0.949,0.859c-0.297,0.023-0.599,0.004-0.898,0.004
			C319.874,143.945,319.874,143.951,319.874,143.957z"/>
		<path style="fill-rule:evenodd;clip-rule:evenodd;fill:#F2C066;" d="M368.008,137.542c0.016,0.692-0.646,1.261-1.474,1.232
			c-0.671-0.023-1.162-0.307-1.23-1.04c-0.068-0.72,0.52-1.184,1.465-1.184C367.545,136.552,367.991,136.909,368.008,137.542z"/>
		<path style="fill-rule:evenodd;clip-rule:evenodd;fill:#47953A;" d="M332.894,149.675c-0.913-0.016-1.465-0.405-1.346-1.005
			c0.168-0.841,0.86-0.858,1.523-0.853c0.642,0.005,1.253,0.186,1.243,0.941C334.303,149.664,333.56,149.661,332.894,149.675z"/>
	</g>
	<g>
		<path style="fill-rule:evenodd;clip-rule:evenodd;fill:#FFCB65;" d="M406.151,150.698c-4.372-1.99-8.046-4.893-11.284-8.426
			c-4.615-5.034-7.442-10.99-9.049-17.529c-1.046-4.259-1.011-8.553,0.788-12.692c0.385-0.883,0.804-1.732,1.47-2.438
			c2.367-2.289,5.024-3.923,8.413-4.314c2.398-0.276,4.629-0.026,6.786,1.035c1.878,0.925,3.708,1.929,5.355,3.234
			c0.602,0.478,1.278,0.924,1.253,1.838c-0.53,1.018-1.645,1.145-2.521,1.614c-6.215,3.314-8.151,12.179-3.859,17.773
			c3.16,4.117,9.497,4.988,14.163,1.97c0.6-0.388,1.104-1.202,2.029-0.672c1.449,5.341,1.209,10.491-2.058,15.152
			c-2.155,3.077-6.644,4.571-10.255,3.66C406.977,150.801,406.584,150.628,406.151,150.698z"/>
		<path style="fill-rule:evenodd;clip-rule:evenodd;fill:#4C5369;" d="M432.028,126.119c6.729,12.272,13.009,24.776,19.39,37.23
			c3.068,5.986,6.102,11.991,9.137,17.995c0.41,0.813,0.871,1.512,1.631,2.087c1.967,1.489,2.727,5.733,0.372,7.706
			c-0.651,0.545-0.911,1.214-1.077,1.994c-2.323,10.925-4.645,21.849-6.988,32.769c-1.842,8.571-3.718,17.135-5.57,25.703
			c-0.316,1.468-0.624,2.938-0.88,4.415c-0.116,0.672-0.449,0.894-1.094,0.884c-1.496-0.024-2.992-0.009-4.229-0.009
			c-0.465-0.405-0.434-0.65-0.387-0.875c2.352-11.101,4.699-22.202,7.065-33.298c2.102-9.866,4.209-19.729,6.35-29.585
			c0.241-1.105,0.259-1.983-0.471-3.003c-1.126-1.574-1.203-3.414-0.159-5.097c0.493-0.791,0.43-1.358,0.032-2.12
			c-7.109-13.635-14.181-27.29-21.307-40.917c-1.084-2.071-2.4-4.02-3.61-6.025c-0.248-0.296-0.344-0.663-0.238-1.005
			c0.855-2.797,1.065-5.706,1.516-8.573C431.628,126.2,431.801,126.109,432.028,126.119z"/>
		<path style="fill-rule:evenodd;clip-rule:evenodd;fill:#FC954A;" d="M431.797,126.185c0.187,3.376-0.519,6.609-1.564,9.788
			c-1.25,2.316-2.151,4.815-3.783,6.937c-3.2,4.161-7.1,7.327-12.263,8.663c-2.755,0.713-5.469,0.45-8.035-0.875
			c0.352-0.382,0.735-0.209,1.155-0.119c4.034,0.868,9.561-1.375,11.441-6.288c1.352-3.531,1.334-7.101,0.854-10.743
			c-0.072-0.532-0.107-1.069-0.157-1.604c-0.642-0.394-0.707-1.065-0.821-1.712c-1.178-6.655-3.564-12.745-8.305-17.734
			c-0.286-0.305-0.543-0.639-0.551-1.092c-1.358-1.847-3.392-2.796-5.302-3.87c-1.229-0.69-2.467-1.373-3.95-1.604
			c-3.858-0.6-7.301,0.169-10.417,2.544c-0.6,0.457-1.086,1.234-2.022,1.135c2.456-3.455,5.878-5.535,9.821-6.865
			c7.471-2.522,14.375-1.092,20.893,3.014c0.455,0.287,0.918,0.56,1.377,0.838c0.399,0.125,0.838,0.163,1.167,0.454
			c5.183,4.578,9.61,9.634,10.636,16.843C432.081,124.681,432.15,125.443,431.797,126.185z"/>
		<path style="fill-rule:evenodd;clip-rule:evenodd;fill:#499738;" d="M437.297,232.943c0.015,0.116,0.015,0.232,0,0.348
			c-0.729,0.877-1.726,0.689-2.663,0.621c-5.959-0.429-11.92-0.76-17.9-0.616c-0.688,0.017-1.606,0.438-1.964-0.657
			c-0.616-5.227-0.514-10.42,0.791-15.547c0.893-3.507,2.587-6.529,5.19-9.101c3.555-3.513,11.024-3.881,14.266,2.206
			c1.061,1.992,1.626,4.123,2.004,6.315c0.895,5.179,0.942,10.381,0.366,15.597C437.315,232.383,437.39,232.672,437.297,232.943z"/>
		<path style="fill-rule:evenodd;clip-rule:evenodd;fill:#B36C4B;" d="M440.807,243.492c-0.311,3.106-1.04,6.139-1.59,9.204
			c-0.159,0.887-0.45,1.759-0.502,2.648c-0.056,0.992-0.559,1.146-1.396,1.143c-7.8-0.022-15.601-0.038-23.4-0.002
			c-0.992,0.004-1.377-0.377-1.514-1.28c-0.606-4.025-1.234-8.05-1.854-12.075c2.882-0.575,5.821-0.46,8.728-0.61
			c6.512-0.335,13.029,0.139,19.544,0.327C439.539,242.866,440.271,242.89,440.807,243.492z"/>
		<path style="fill-rule:evenodd;clip-rule:evenodd;fill:#C77940;" d="M431.797,126.185c-0.349-4.255-1.684-8.193-4.134-11.671
			c-1.965-2.79-4.449-5.145-7.003-7.407c-0.176-0.156-0.33-0.336-0.493-0.505c3.975-1.832,7.917-3.725,12.118-5.022
			c1.697-0.524,3.195-0.279,4.642,0.624c5.444,3.405,7.963,8.315,7.541,14.726c-0.099,1.464-0.768,2.628-1.899,3.544
			c-1.506,1.22-3.191,2.136-4.952,2.917c-1.482,0.658-2.981,1.276-4.467,1.925c-0.427,0.186-0.95,0.255-1.121,0.805
			C431.959,126.171,431.883,126.192,431.797,126.185z"/>
		<path style="fill-rule:evenodd;clip-rule:evenodd;fill:#B36C4B;" d="M414.77,232.639c0.681,0.524,1.397,0.044,2.079,0.021
			c5.396-0.183,10.775,0.249,16.159,0.42c1.427,0.046,2.846,0.374,4.289,0.21c1.534,0.111,3.067,0.241,4.605,0.326
			c0.771,0.042,1.063,0.358,0.876,1.133c-0.415,1.718-0.802,3.441-1.202,5.163c-1.689-0.717-3.454-0.882-5.276-0.875
			c-7.624,0.033-15.247,0.024-22.872,0.003c-1.228-0.004-2.381,0.122-3.389,0.888c-0.567-1.963-0.667-4.004-1.015-6.004
			c-0.132-0.754,0.28-0.898,0.924-0.941C411.555,232.877,413.191,233.157,414.77,232.639z"/>
		<path style="fill-rule:evenodd;clip-rule:evenodd;fill:#824F37;" d="M410.038,239.93c0.272-1.46,0.272-1.491,1.619-1.493
			c8.861-0.011,17.724,0,26.586-0.024c0.857-0.003,1.637,0.343,2.475,0.364c0.775,0.02,0.759,0.618,0.857,1.137
			c-0.144,1.217-0.32,2.426-0.769,3.578c-6.107,0.101-12.196-0.62-18.306-0.384c-1.616,0.063-3.27-0.171-4.848,0.088
			c-1.798,0.299-3.579,0.191-5.368,0.269c-0.605,0.027-1.199,0.002-1.734-0.335C410.323,242.073,410.068,241.019,410.038,239.93z"/>
		<path style="fill-rule:evenodd;clip-rule:evenodd;fill:#B36C4B;" d="M437.297,232.943c-0.082-0.291-0.138-0.58,0.089-0.837
			C437.513,232.404,437.479,232.681,437.297,232.943z"/>
		<path style="fill-rule:evenodd;clip-rule:evenodd;fill:#FFF0D2;" d="M409.768,111.406c2.55,1.863,4.155,4.488,5.55,7.208
			c1.979,3.861,3.487,7.906,3.87,12.29c0.03,0.351,0.168,0.694,0.258,1.04c-2.486,2.545-5.528,3.357-8.998,2.986
			c-5.87-0.627-9.711-4.863-9.757-10.804c-0.03-3.831,1.143-7.175,3.928-9.88C406.074,112.831,407.922,112.117,409.768,111.406z"/>
	</g>
	<g>
		<path style="fill-rule:evenodd;clip-rule:evenodd;fill:#499838;" d="M52.715,384.941c-1.488-8.474-1.124-17.009-0.841-25.539
			c0.08-2.401-0.931-4.434-2.116-6.396c-1.104-1.827-2.625-3.271-4.41-4.444c-5.45-3.585-9.47-8.377-12.496-14.161
			c-2.63-5.024-4.202-10.329-5.245-15.842c-0.1-0.53-0.164-1.075-0.168-1.612c-0.015-1.502,0.67-2.001,2.048-1.406
			c1.486,0.644,2.997,1.282,4.369,2.131c6.268,3.876,11.638,8.689,15.451,15.098c1.363,2.29,2.348,4.729,3.115,7.268
			c0.118,0.392,0.146,0.816,0.711,1.355c0-0.639-0.013-1.07,0.002-1.502c0.262-7.271,0.535-14.539,0.517-21.817
			c-0.005-1.967-0.599-3.652-1.841-5.129c-0.774-0.918-1.565-1.825-2.401-2.688c-4.399-4.548-7.378-9.886-9.089-15.969
			c-2.398-8.528-3.432-17.191-2.724-26.041c0.057-0.714,0.118-1.451,0.336-2.127c0.323-0.995,1.146-1.185,1.984-0.542
			c0.236,0.182,0.429,0.421,0.628,0.644c6.67,7.476,10.913,16.204,13.289,25.877c1.744,7.097,2.446,14.326,2.546,21.618
			c0.032,2.277,0.005,4.555,0.005,7.07c0.499-0.596,0.592-1.115,0.797-1.585c4.171-9.576,10.157-17.689,19.001-23.483
			c0.852-0.558,1.74-1.079,2.664-1.506c1.432-0.664,2.23-0.207,2.319,1.335c0.062,1.077,0.002,2.165-0.073,3.243
			c-0.424,6.091-2.465,11.729-4.906,17.247c-2.035,4.602-5.055,8.432-9.114,11.431c-2.566,1.898-4.976,3.973-7.238,6.229
			c-1.517,1.514-2.595,3.297-3.588,5.157c-0.259,0.486-0.396,1.004-0.429,1.55c-0.291,4.801-0.581,9.602-0.866,14.401
			c-0.01,0.164,0.034,0.332,0.062,0.585c0.512-0.386,0.591-0.934,0.793-1.399c3.427-7.882,9.131-13.431,17.086-16.674
			c1.39-0.567,2.778-1.141,4.174-1.697c0.445-0.177,0.901-0.347,1.368-0.447c1.564-0.332,2.268,0.258,2.221,1.877
			c-0.069,2.417-0.46,4.795-1.179,7.095c-1.929,6.181-4.783,11.793-9.946,15.984c-1.932,1.568-4.104,2.714-6.256,3.91
			c-1.681,0.934-3.369,1.853-5.046,2.79c-0.949,0.53-1.821,1.169-2.564,1.972c-0.969,1.046-1.514,2.196-1.494,3.71
			c0.053,4.148,0.116,8.293,0.587,12.42C54.08,385.926,53.399,386.046,52.715,384.941z"/>
		<path style="fill-rule:evenodd;clip-rule:evenodd;fill:#FC954A;" d="M40.205,411.953c-0.434-2.297-0.871-4.595-1.295-6.893
			c-0.086-0.469-0.121-0.947-0.18-1.421c1.317-1.625,2.728-2.041,4.344-0.861c1.833,1.339,3.51,1.62,5.433,0.314
			c1.081-0.735,2.205-0.448,3.206,0.24c1.65,1.135,3.26,1.058,4.856-0.064c1.275-0.896,2.371-0.724,3.581,0.25
			c1.798,1.448,2.808,1.335,4.625-0.187c2.374-1.989,3.745-1.993,6.33-0.015c-0.748,3.071-1.499,6.142-2.24,9.215
			c-0.097,0.402-0.138,0.817-0.206,1.228c0.416,1.631-0.46,2.604-1.746,3.336c-0.576,0.326-1.229,0.487-1.877,0.601
			c-4.132,0.721-8.271,1.155-12.485,0.764c-2.796-0.262-5.618-0.232-8.375-0.895c-3.312-0.797-4.031-1.715-3.848-5.092
			C40.338,412.286,40.268,412.121,40.205,411.953z"/>
		<path style="fill-rule:evenodd;clip-rule:evenodd;fill:#FC954A;" d="M52.715,384.941c0.682,0.378,1.362,0.353,2.039-0.01
			c5.446,0.183,10.891,0.369,16.34,0.334c0.539-0.004,1.083-0.037,1.615,0.025c1.177,0.139,1.651,0.668,1.714,1.886
			c0.077,1.568-0.229,3.083-0.666,4.577c-9.264,0.277-18.53,0.462-27.787,0.943c-3.169,0.163-6.347-0.055-9.516,0.182
			c-0.594-1.704-0.708-3.508-1.03-5.266c-0.238-1.296,0.301-1.867,1.666-1.988c1.491-0.134,2.987-0.236,4.483-0.293
			C45.288,385.183,49.001,385.066,52.715,384.941z"/>
		<path style="fill-rule:evenodd;clip-rule:evenodd;fill:#FC954A;" d="M38.275,401.54c-0.645-1.765-0.867-3.621-1.207-5.453
			c0.648-0.706,1.527-0.653,2.35-0.631c7.736,0.213,15.438-0.59,23.159-0.802c2.689-0.074,5.377-0.351,8.075-0.284
			c0.825,0.021,1.702-0.075,2.349,0.636c-0.249,2.098-0.804,4.125-1.395,6.145c-1.053-0.016-1.971-0.52-2.92-0.87
			c-1.326-0.488-2.5-0.365-3.499,0.623c-1.677,1.661-3.362,2.166-5.353,0.446c-1.037-0.893-2.237-0.772-3.315,0.064
			c-1.613,1.254-3.184,1.438-4.914,0.134c-1.114-0.839-2.422-0.743-3.55,0.057c-1.411,1.003-2.694,1.065-4.093-0.037
			c-1.349-1.063-2.818-1.27-4.332-0.228C39.239,401.61,38.775,401.805,38.275,401.54z"/>
		<path style="fill-rule:evenodd;clip-rule:evenodd;fill:#DCB1F0;" d="M40.205,411.953c0.317,1.086,0.653,2.166,0.944,3.258
			c0.229,0.859,0.748,1.198,1.626,1.407c5.296,1.261,10.65,1.502,16.067,1.222c2.406-0.124,4.762-0.411,7.111-0.931
			c1.328-0.295,2.155-0.948,2.37-2.324c0.044-0.286,0.22-0.552,0.336-0.825c1.279,0.086,2.428,0.618,3.584,1.094
			c0.882,0.364,1.891,0.757,1.794,1.965c-0.094,1.158-0.517,2.188-1.622,2.83c-1.05,0.611-2.17,1.101-3.349,1.224
			c-2.726,0.283-5.416,0.938-8.181,0.833c-1.917-0.072-3.787,0.48-5.718,0.367c-5.43-0.316-10.822-0.834-16.072-2.352
			c-0.574-0.166-1.143-0.354-1.705-0.561c-1.51-0.551-2.268-1.448-2.279-2.676c-0.009-1.172,0.986-2.476,2.3-2.935
			c0.618-0.214,1.262-0.401,1.909-0.476C40.049,412.984,40.165,412.528,40.205,411.953z"/>
		<path style="fill-rule:evenodd;clip-rule:evenodd;fill:#C77437;" d="M73.001,395.006c-2.223,0.002-4.481-0.243-6.66,0.067
			c-3.399,0.483-6.839-0.084-10.208,0.61c-0.175,0.035-0.36,0.024-0.54,0.027c-6.176,0.097-12.342,0.605-18.525,0.376
			c-0.261-1.059-0.546-2.111-0.612-3.207c0.128-0.342,0.263-0.683,0.698-0.722c0.239-0.022,0.479-0.047,0.718-0.036
			c5.577,0.232,11.132-0.363,16.705-0.42c4.485-0.047,8.975-0.272,13.463-0.383c1.476-0.037,2.97-0.27,4.466-0.282
			c0.565-0.006,1.102,0.012,1.252,0.717C73.661,392.874,73.441,393.964,73.001,395.006z"/>
		<path style="fill-rule:evenodd;clip-rule:evenodd;fill:#C87537;" d="M38.275,401.54c0.321-0.163,0.692-0.27,0.954-0.499
			c1.647-1.441,3.276-1.165,4.917-0.012c0.099,0.069,0.202,0.135,0.286,0.217c1.039,1.026,2.018,0.908,3.132,0.024
			c1.569-1.243,3.258-1.149,4.793,0.073c1.104,0.877,2.094,0.992,3.175,0.058c0.132-0.115,0.34-0.146,0.467-0.266
			c1.668-1.564,3.204-0.998,4.808,0.181c1.602,1.177,1.688,1.147,3.227-0.122c2.971-2.452,2.421-2.128,5.913-1
			c0.609,0.196,1.319,0.272,1.659,0.957c-0.017,0.758-0.257,1.461-0.502,2.165c-0.982-0.046-1.849-0.462-2.719-0.856
			c-0.935-0.426-1.719-0.278-2.436,0.475c-0.493,0.517-1.029,1.009-1.607,1.425c-1.466,1.057-2.604,1.221-3.883,0.015
			c-1.562-1.474-2.825-1.434-4.466-0.205c-1.321,0.989-2.826,0.853-4.163-0.186c-1.212-0.944-2.423-1.189-3.724-0.158
			c-0.322,0.255-0.742,0.385-1.114,0.579c-0.866,0.45-1.706,0.521-2.509-0.146c-0.137-0.115-0.309-0.185-0.458-0.284
			c-2.57-1.71-2.087-1.949-5.295-0.335C38.267,403.007,38.333,402.259,38.275,401.54z"/>
	</g>
	<g>
		<path style="fill-rule:evenodd;clip-rule:evenodd;fill:#CCA8FF;" d="M251.486,258.022c4.023-0.018,8.047-0.008,12.072-0.006
			c2.581,0,5.164,0.004,7.746-0.001c3.126-0.006,3.647-0.579,3.399-3.713c-0.185-0.943,0.541-1.146,1.165-1.432
			c0.714-3.393,1.431-6.784,2.145-10.176c1.02-4.857,2.027-9.718,3.065-14.572c2.012-9.413,4.039-18.826,6.067-28.236
			c1.186-5.495,2.385-10.986,3.584-16.479c0.289-1.326,0.667-1.571,2.135-1.64c13.933-0.656,27.876-0.079,41.81-0.4
			c21.512-0.496,43.024-0.208,64.535-0.32c3.483-0.018,3.655,0.143,2.942,3.599c-1.064,5.154-2.243,10.285-3.355,15.43
			c-1.412,6.546-2.798,13.098-4.216,19.643c-1.114,5.144-2.247,10.284-3.396,15.42c-1.424,6.363-2.858,12.724-4.326,19.077
			c-0.237,1.021-0.124,2.032-0.203,3.045c-0.107,1.379-0.401,1.663-1.757,1.706c-0.479,0.014-0.961,0.003-1.442,0.003
			c-35.349,0-70.7-0.002-106.05,0c-8.837,0.001-17.677,0.017-26.513,0.024c-0.421,0-0.842-0.023-1.262-0.001"/>
	</g>
	<g>
		<path style="fill-rule:evenodd;clip-rule:evenodd;fill:#B73C67;" d="M319.581,386.02c-1.332-0.398-1.617-1.517-1.773-2.673
			c-0.362-2.678-0.834-5.352-0.98-8.044c-0.31-5.713-1.297-11.332-2.036-16.988c-0.69-5.299-1.41-10.596-2.04-15.902
			c-0.553-4.66-1.629-9.226-2.371-13.849c-0.325-2.017-0.641-4.033-0.938-6.053c-0.072-0.492-0.239-0.639-0.674-0.338
			c-0.67-2.047-0.79-4.207-1.311-6.288c-0.759-3.027-1.497-6.056-2.433-9.035c-0.364-1.154-1.006-1.714-2.27-1.913
			c-3.108-0.491-6.239-0.057-9.344-0.396c-4.069-0.324-8.143-0.535-12.209-0.899c-1.079-0.097-2.129-0.323-3.198-0.448
			c-2.408,0.232-4.795-0.214-7.183-0.353c-8.393-0.485-16.79-0.551-25.188-0.772c-4.379-0.116-8.766-0.034-13.136-0.284
			c-6.768-0.387-13.549-0.365-20.314-0.916c-3.978-0.326-7.895-0.612-11.601-2.193c-3.245-1.386-6.144-3.27-8.49-5.939
			c-4.242-4.964-5.635-10.659-3.993-16.954c1.608-6.163,3.562-12.226,6.893-17.733c0.52-0.859,0.872-1.869,1.886-2.344
			c2.503-0.469,5.026-0.297,7.534-0.161c7.732,0.423,15.459,0.449,23.187-0.016c1.019-0.063,2.038-0.116,3.055,0.004
			c0.771,0.092,1.394,0.376,1.495,1.267c0.186,0.696,0.28,1.434,0.573,2.079c1.587,3.496,3.017,7.071,5.113,10.318
			c1.022,1.584,2.497,2.752,3.695,4.172c0.4,0.475,0.935,0.471,1.482,0.481c7.695,0.145,15.322,1.282,23.005,1.614
			c5.164,0.225,10.302,0.758,15.445,1.239c4.9,0.456,9.797,0.966,14.689,1.517c4.59,0.517,9.178,1.085,13.759,1.691
			c2.14,0.283,4.272,0.66,6.388,1.085c4.715,0.947,7.664,3.754,9.272,8.325c1.233,3.5,1.252,7.081,1.474,10.657
			c0.375,6.117,0.42,12.257,0.919,18.36c0.611,7.49,0.963,14.983,1.225,22.489c0.162,4.633-0.19,9.252-0.157,13.88
			c0.063,8.234,0.006,16.469-0.01,24.703c-0.001,0.96-0.045,1.923-0.059,2.885c-0.013,0.959-0.317,1.766-1.155,2.307
			c-0.682,1.248-1.919,1.647-3.158,1.793C322.96,386.595,321.205,386.987,319.581,386.02z"/>
		<path style="fill-rule:evenodd;clip-rule:evenodd;fill:#DCB1F0;" d="M290.324,410.53c0.614,0.57,1.374,0.331,2.069,0.333
			c15.934,0.02,31.871-0.267,47.795,0.102c20.372,0.469,40.746-0.16,61.107,0.358c16.886,0.432,33.767-0.011,50.645,0.347
			c3.773,0.078,7.56,0.096,11.322,0.356c2.098,0.144,4.303,0.323,6.116,1.77c1.635,1.304,2.286,3.457,1.678,5.43
			c-1.049,3.395-3.354,5.295-6.744,6.004c-2.05,0.427-4.109,0.693-6.212,0.843c-7.86,0.562-15.738,0.535-23.584,0.229
			c-10.874-0.424-21.752,0.142-32.608-0.345c-10.575-0.475-21.151,0.125-31.708-0.354c-10.814-0.49-21.631,0.118-32.428-0.369
			c-10.213-0.46-20.43,0.129-30.624-0.357c-9.974-0.476-19.95,0.122-29.902-0.358c-9.914-0.48-19.829,0.119-29.723-0.364
			c-9.672-0.472-19.348,0.12-29.001-0.36c-8.892-0.442-17.787,0.113-26.656-0.372c-6.73-0.365-13.462-0.465-20.164-0.182
			c-9.855,0.419-19.699,0.086-29.546,0.254c-1.017,0.018-2.024,0.016-3.04-0.246c-0.678-0.174-1.445-0.151-2.151-0.056
			c-4.848,0.661-9.726,0.369-14.571,0.202c-2.69-0.09-5.388-0.216-8.082-0.233c-3.844-0.024-7.653-0.422-11.405-1.173
			c-2.378-0.474-4.498-1.632-6.143-3.525c-2.161-2.486-1.618-5.563,1.307-7.056c2.33-1.19,4.898-1.518,7.432-1.976
			c2.5-0.45,5.034-0.52,7.531-0.307c3.159,0.265,6.347,0.058,9.483,0.644c0.524,0.096,1.08,0.03,1.621,0.03
			c7.635,0.004,15.278-0.197,22.903,0.08c5.703,0.205,11.4,0.214,17.1,0.266c0.581,0.006,1.191,0.157,1.745-0.156
			c0.143-0.542-0.234-0.927-0.38-1.371c-0.889-2.688-0.385-3.406,1.852-4.951c1.992-1.376,4.378-1.551,6.698-1.781
			c1.248-0.122,2.52,0,3.781,0.011c0.128,0.87-0.554,1.419-0.854,2.116c-1.458,3.397,0.681,6.833,4.18,6.682
			c2.329-0.102,3.839-1.893,4.041-4.439c0.101-1.299-0.895-2.533-0.121-3.827c0.529-0.369,1.125-0.361,1.733-0.341
			c6.292,0.215,12.59,0.333,18.876,0.623c6.346,0.293,12.701,0.445,19.037,0.958c1.798,0.146,3.602,0.004,5.399,0.111
			c0.973,0.059,1.981,0.14,2.121,1.446c-0.027,0.938-0.703,1.629-0.966,2.486c-0.619,2.014-0.13,4.191,1.248,5.278
			c1.317,1.038,3.061,1.172,4.37,0.336c1.385-0.885,2.279-3.248,1.87-4.939c-0.127-0.529-0.388-1.004-0.601-1.503
			c-0.392-1.276-0.56-2.508,0.736-3.423c2.31-0.231,4.386,0.503,6.336,1.631c1.091,0.632,1.834,1.638,1.924,2.903
			c0.112,1.601,0.984,1.928,2.39,1.92c6.491-0.035,12.984-0.021,19.476-0.015c5.164,0.007,10.331-0.138,15.481,0.351
			c0.348-0.088,0.734-0.137,1.044,0.028C287.117,411.108,288.707,411.035,290.324,410.53z"/>
		<path style="fill-rule:evenodd;clip-rule:evenodd;fill:#C56647;" d="M196.539,256.082c-0.238,1.349-1.148,2.371-1.808,3.487
			c-1.323,2.236-2.312,4.617-3.176,7.031c-1.391,3.885-2.755,7.789-3.514,11.869c-0.1,0.537-0.246,1.077-0.154,1.599
			c0.331,1.879,0.343,3.799,0.883,5.654c0.7,2.402,1.863,4.53,3.423,6.462c-0.639,1.181-1.908,1.15-2.957,1.461
			c-5.709,1.693-11.413,3.391-16.808,5.957c-2.605,1.237-5.183,2.528-7.519,4.258c-1.416,1.047-1.86,0.886-2.391-0.838
			c-0.901-2.932-1.687-5.895-2.252-8.912c-1.176-6.266-2.504-12.492-4.188-18.645c-2.888-10.558-4.961-21.307-7.335-31.984
			c-3.561-16.017-6.794-32.105-10.185-48.159c-1.055-4.994-2.411-9.927-4.27-14.705c-0.832-2.138-2.251-3.958-3.097-6.078
			c1.09-0.597,2.309-0.555,3.479-0.607c7-0.31,14.001-0.578,21.003-0.835c7.063-0.259,14.126-0.489,21.188-0.732
			c0.879,0.438,0.753,1.291,0.784,2.037c0.072,1.799,0.037,3.602,0.027,5.402c-0.006,1.229,0.544,1.692,1.746,1.704
			c5.461,0.055,10.905-0.598,16.368-0.391c1.19,0.045,1.525-0.635,1.556-1.7c0.041-1.372-0.189-2.766,0.261-4.111
			c0.204-0.457,0.595-0.648,1.009-0.419c2.324,1.294,4.99,1.859,7.199,3.396c0.572,1.38,0.241,2.811,0.242,4.222
			c-0.399,3.101-2.687,4.679-5.085,6.05c-2.222,1.27-4.543,2.38-6.886,3.426c-4.877,1.654-8.188,5.016-10.452,9.539
			c-2.473,4.938-3.755,10.195-4.249,15.666c-0.11,1.216,0.116,2.385,0.62,3.5c0.53,2.124,0.478,4.245,0.322,6.427
			c-0.316,4.427-0.306,8.878-0.001,13.308c0.172,2.51,0.271,5.027,0.568,7.532c0.173,1.453,0.52,2.835,1.189,4.123
			c0.868,1.669,2.208,2.65,4.156,2.673c2.639,0.032,5.253,0.513,7.902,0.416C195.029,255.132,195.966,255.188,196.539,256.082z"/>
		<path style="fill-rule:evenodd;clip-rule:evenodd;fill:#263A76;" d="M198.044,175.05c0.007,1.859-0.004,3.72,0.03,5.579
			c0.016,0.831-0.289,1.22-1.157,1.167c-0.778-0.049-1.56-0.004-2.338-0.031c-4.924-0.17-9.826,0.393-14.743,0.412
			c-0.48,0.002-0.961,0.02-1.44,0.002c-1.23-0.044-1.256-0.064-1.28-1.369c-0.045-2.399-0.066-4.799-0.113-7.198
			c-0.009-0.416-0.091-0.83-0.139-1.246c0.002-4.032-0.316-8.047-0.694-12.055c-0.552-5.871-0.93-11.748-0.59-17.644
			c0.498-8.64,3.03-16.647,7.817-23.872c2.339-3.532,5.253-6.561,8.792-8.949c4.145-2.798,8.695-4.556,13.593-5.527
			c8.459-1.677,16.747-1.107,24.84,1.848c7.554,2.759,13.14,7.884,17.049,14.822c4.484,7.957,6.507,16.625,6.949,25.69
			c0.328,6.691-0.284,13.335-1.208,19.951c-0.606,4.351-1.072,8.706-1.11,13.103c-0.014,1.575-0.051,1.59-1.605,1.6
			c-6.734,0.041-13.466-0.235-20.2,0c-1.336,0.047-1.335,0.001-1.316-1.442c0.019-1.441,0.03-2.883,0.044-4.324
			c0.012-0.86,0.679-1.23,1.267-1.62c3.561-2.357,6.406-5.392,8.652-9.01c0.468-0.755,0.882-1.623,2.007-1.544
			c1.859,0.23,2.392-0.067,2.908-1.767c0.694-2.293,0.982-4.652,1.003-7.044c0.005-0.717-0.019-1.436,0.207-2.131
			c1.108-2.464,1.058-5.037,0.564-7.595c-0.485-2.506-1.455-3.136-3.946-2.606c-5.546,1.179-11.141,1.658-16.809,1.522
			c-1.987-0.047-3.942-0.347-5.918-0.454c-1.414-0.075-2.259-0.911-2.844-2.156c-0.623-1.326-1.017-2.779-1.967-4.112
			c-0.837,0.9-1.177,1.867-1.57,2.78c-0.742,1.722-2.026,2.607-3.866,2.784c-7.34,0.706-14.665,1.648-22.069,0.858
			c-2.212-0.236-3.619,0.786-4.183,3.104c-0.73,2.995-0.606,5.957,1.119,8.671c0.475,1.274,0.249,2.601,0.26,3.905
			c0.015,1.734,0.071,3.453,0.573,5.128c0.783,2.609,1.435,2.872,3.68,1.471c0.727-0.154,1.091,0.355,1.446,0.831
			c2.078,2.795,4.572,5.165,7.352,7.249C197.508,174.144,198.005,174.424,198.044,175.05z"/>
		<path style="fill-rule:evenodd;clip-rule:evenodd;fill:#BB5FFF;" d="M179.681,220.516c-0.664-0.437-0.933-1.044-0.886-1.842
			c0.064-1.079-0.068-2.188,0.124-3.239c0.975-5.325,2.083-10.616,4.859-15.378c2.217-3.803,5.223-6.711,9.369-8.338
			c0.274-0.107,0.579-0.137,0.87-0.203c0.55,0.191,0.841,0.637,1.128,1.104c3.85,6.265,9.888,8.619,16.808,9.155
			c8.019,0.622,15.105-1.914,21.382-6.855c0.422-0.333,0.828-0.714,1.439-0.569c0.22,0.094,0.477,0.143,0.654,0.287
			c4.686,3.838,8.07,8.525,9.419,14.527c0.751,3.344,1.39,6.7,1.052,10.158c-0.149,0.85-0.722,1.313-1.45,1.684
			c-1.445,0.736-2.922,1.495-4.53,1.629c-2.248,0.19-3.192,1.313-3.464,3.477c-0.158,1.248-0.249,2.647-1.32,3.618
			c-0.992,2.454-1.421,5.06-1.984,7.623c-0.785,3.571-1.418,7.175-1.643,10.837c-0.333,0.316-0.752,0.385-1.171,0.316
			c-5.117-0.858-10.272-0.364-15.406-0.398c-5.331-0.036-10.628-0.512-15.937-0.854c-1.006-0.065-2.032-0.166-2.979-0.586
			c-0.769-0.488-0.749-1.319-0.843-2.072c-0.52-4.148-0.758-8.34-1.962-12.38c-0.801-2.689-1.537-5.399-2.624-7.989
			c-0.567-0.634-1.341-0.71-2.116-0.811c-2.129-0.277-4.238-0.676-6.287-1.327C181.223,221.784,180.212,221.517,179.681,220.516z"/>
		<path style="fill-rule:evenodd;clip-rule:evenodd;fill:#965642;" d="M131.193,174.54c1.115,0.635,1.576,1.779,2.148,2.818
			c2.102,3.816,3.2,7.993,4.358,12.152c1.22,4.382,2.304,8.803,3.066,13.276c1.076,6.307,2.564,12.521,3.847,18.78
			c1.428,6.964,2.974,13.905,4.487,20.853c1.741,7.997,3.516,15.991,5.249,23.992c1.064,4.915,2.602,9.706,3.756,14.597
			c1.042,4.417,1.928,8.868,2.758,13.335c0.619,3.329,1.528,6.611,2.606,9.869c6.576-4.877,14.029-7.605,21.682-9.893
			c2.351-0.701,4.695-1.422,7.043-2.134c1.62,1.228,2.94,2.786,4.709,3.875c4.185,2.576,8.662,3.934,13.579,4.094
			c2.861,0.092,5.737,0.196,8.583,0.614c0.589,0.087,1.199,0.056,1.799,0.056c7.32,0.002,14.64,0.276,21.952,0.489
			c5.339,0.155,10.683-0.041,16.007,0.301c2.874,0.184,5.76,0.1,8.611,0.383c1.978,0.195,3.948,0.185,5.918,0.302
			c1.609,0.1,3.202,0.44,4.826,0.396c0.205,0.257,0.346,0.542,0.375,0.874c0.083,1.075-0.029,2.155,0.105,3.23
			c-0.392,5.358-3.78,8.693-9.121,9.077c-3.072,0.22-6.106-0.345-9.168-0.339c-8.285,0.013-16.57,0.032-24.855-0.006
			c-6.178-0.028-12.348-0.482-18.53-0.423c-5.915,0.207-11.831,0.062-17.745,0.082c-0.747,0.004-1.389-0.311-2.048-0.588
			c-7.635-0.027-15.27-0.161-22.894-0.531c-2.7-0.131-5.407-0.155-8.101-0.378c-3.892-0.321-5.66-0.561-6.821-5.646
			c-1.432-6.264-2.923-12.515-4.343-18.781c-7.319-32.335-14.248-64.755-21.309-97.147c-1.113-5.104-2.191-10.217-3.296-15.324
			C130.229,175.876,130.034,174.985,131.193,174.54z"/>
		<path style="fill-rule:evenodd;clip-rule:evenodd;fill:#FFBFA1;" d="M183.53,155.501c-2.203-2.799-2.565-7.655-0.854-10.705
			c0.934-1.661,2.425-2.102,4.133-1.922c2.158,0.228,4.317,0.209,6.479,0.242c5.478,0.085,10.9-0.64,16.337-1.161
			c1.217-0.116,1.979-0.723,2.415-1.839c0.61-1.563,1.337-3.069,2.319-4.541c0.727,0.836,0.906,1.803,1.305,2.658
			c0.458,0.978,0.898,1.97,1.252,2.988c0.373,1.076,1.129,1.43,2.185,1.528c7.76,0.723,15.484,0.655,23.096-1.205
			c2.206-0.54,3.302,0.224,3.983,2.211c0.78,2.277,0.82,4.599,0.329,6.932c-0.145,0.688-0.271,1.429-0.912,1.9
			c-0.6,0.064-0.613-0.374-0.669-0.779c-0.103,0.648,0.191,1.359-0.292,1.952c-0.714,0.475-0.849,1.247-0.984,1.998
			c-0.409,2.281-1.163,4.458-1.953,6.626c-0.205,0.479-0.501,0.899-0.851,1.285c-0.492,0.053-0.674,0.449-0.881,0.81
			c-2.483,4.342-5.838,7.845-10.079,10.501c-0.248,0.155-0.444,0.391-0.665,0.588c-2.469,0.987-4.939,1.976-7.408,2.964
			c-0.936,0.903-2.17,0.969-3.34,1.095c-3.509,0.377-7.024,0.437-10.526-0.137c-0.967-0.158-1.868-0.419-2.458-1.285
			c-2.679-0.593-5.089-1.819-7.451-3.156c-3.421-2.271-6.424-4.984-8.8-8.36c-0.203-0.29-0.473-0.532-0.712-0.795
			c-0.526-0.211-0.797-0.66-1.059-1.121c-0.991-1.863-1.563-3.881-2.15-5.893c-0.236-0.806-0.465-1.615-1.158-2.176
			C183.756,156.406,184.268,155.626,183.53,155.501z"/>
		<path style="fill-rule:evenodd;clip-rule:evenodd;fill:#ADADAD;" d="M231.892,405.749c0.072-0.82-0.085-1.451-1.125-1.354
			c-0.118,0.012-0.24-0.005-0.359,0c-4.314,0.185-8.61-0.292-12.912-0.454c-5.912-0.222-11.826-0.466-17.735-0.746
			c-3.35-0.158-6.695-0.143-10.042-0.266c-1.015-0.037-2.025,0.003-3.032-0.259c-0.552-0.143-1.194-0.232-1.705,0.24
			c-0.105,2.033-0.603,2.594-2.435,2.747c-2.623,0.22-3.887-0.493-4.272-2.399c-0.095-0.468-0.062-0.947-0.133-1.417
			c0.402-0.364,0.676-0.741,0.764-1.344c0.144-0.998,0.266-2.016,0.655-2.973c0.606-1.488,1.572-2.253,3.291-2.226
			c5.403,0.091,10.808,0.069,16.212,0.091c0.3,0.001,0.6,0.006,0.9,0.006c1.972,0.004,1.981,0.004,1.984-1.959
			c0.02-10.506-0.158-21.02,0.1-31.522c0.293-11.943,0.097-23.887,0.335-35.828c0.038-1.912,0.283-3.822,0.253-5.744
			c0.927-0.915,2.112-0.647,3.199-0.614c2.004,0.063,3.995,0.482,6.015,0.136c0.467-0.081,0.942,0.058,1.313,0.412
			c-0.689,2.057-0.197,4.135-0.182,6.218c0.11,15.446,0.271,30.897-0.054,46.339c-0.144,6.849-0.122,13.695-0.231,20.541
			c-0.038,2.316,0.111,2.337,2.46,2.447c6.119,0.286,12.223,0.821,18.31,1.512c2.209,0.25,4.209,1.057,5.27,3.268
			c0.223,0.921,0.196,1.851,0.058,2.783c-0.022,0.1-0.046,0.199-0.07,0.299c-0.24,1.057-0.622,2.117,0.012,3.172
			c-0.455,2.263-1.936,2.963-4.832,2.285C232.014,408.697,231.378,407.625,231.892,405.749z"/>
		<path style="fill-rule:evenodd;clip-rule:evenodd;fill:#993457;" d="M293.556,304.084c2.097,0,4.199,0.052,6.294-0.017
			c1.453-0.046,2.826,0.503,4.277,0.416c0.642-0.039,0.864,0.484,1.055,1.035c1.153,3.338,2.037,6.749,2.821,10.188
			c0.278,1.221,0.401,2.486,0.793,3.668c0.324,0.982,0.169,1.869-0.027,2.799c-1.506,5.371-3.363,10.623-5.321,15.844
			c-3.426,9.152-7.26,18.152-10.375,27.42c-2.064,6.136-3.956,12.331-5.959,18.486c-0.52,1.596-1.186,3.142-1.753,4.721
			c-0.341,0.955-0.883,1.687-1.878,2.015c-2.728,0.392-5.142-0.23-7.143-2.199c-0.395-0.939-0.243-1.893-0.039-2.833
			c4.609-21.3,8.091-42.835,13.444-63.979c1.136-4.482,2.065-9.013,3.027-13.535c0.438-1.049,0.23-2.164,0.337-3.248
			C293.17,304.554,293.285,304.274,293.556,304.084z"/>
		<path style="fill-rule:evenodd;clip-rule:evenodd;fill:#FFC3A7;" d="M179.681,220.516c2.926,1.432,6.073,1.999,9.265,2.419
			c0.723,0.095,1.588-0.09,2.028,0.778c1.184,6.144,0.733,12.386,1.091,18.579c0.139,2.412,0.026,3.026,2.495,3.229
			c0.501,0.041,0.859,0.396,1.233,0.694c3.514,0.441,7.043,0.678,10.578,0.916c6.845,0.465,13.691,0.392,20.539,0.278
			c1.604-0.027,3.055,0.587,4.596,0.779c1.918,1.021,3.575,2.367,4.978,4.023c0.308,0.363,0.647,0.718,0.869,1.133
			c0.876,1.642,0.289,2.657-1.573,2.745c-0.837,0.04-1.676,0.041-2.514,0.03c-0.53-0.007-0.942,0.128-1.117,0.678
			c-0.259-0.417-0.531-0.759-1.119-0.723c-1.431,0.087-2.881-0.152-4.297,0.228c-0.707,0.188-1.428,0.165-2.146,0.163
			c-5.998-0.023-12.001,0.081-17.991-0.137c-3.353-0.122-6.701-0.305-10.058-0.248c-0.759-0.187-1.525-0.35-2.313-0.309
			c-2.826,0.146-5.613-0.487-8.438-0.408c-1.991,0.057-3.186-1.207-4.129-2.737c-0.733-1.184-1.15-2.518-1.309-3.899
			c-0.809-7.053-0.862-14.143-0.655-21.22C179.767,225.169,179.683,222.847,179.681,220.516z"/>
		<path style="fill-rule:evenodd;clip-rule:evenodd;fill:#FFC3A7;" d="M234.773,194.35c-4.854,4.398-10.582,7.079-17.023,7.867
			c-6.856,0.839-13.388-0.323-19.059-4.665c-2.091-1.602-3.652-3.61-4.675-6.036c2.138-1.074,4.281-2.138,6.413-3.225
			c1.508-0.77,2.816-1.811,3.96-3.055c0.618-0.674,1.02-1.471,1.203-2.371c0.106-0.865,0.384-1.479,1.462-1.191
			c4.871,1.298,9.674,0.996,14.418-0.643c0.226-0.078,0.473-0.031,0.71,0.002c0.584,0.824,0.314,1.839,0.652,2.752
			c0.87,2.346,2.408,4.119,4.368,5.549c1.592,1.162,3.247,2.233,5.022,3.117C233.171,192.923,234.191,193.36,234.773,194.35z"/>
		<path style="fill-rule:evenodd;clip-rule:evenodd;fill:#FFC3A7;" d="M235.134,229.73c0.46-2.048,0.952-4.088,1.36-6.147
			c0.142-0.714,0.439-0.978,1.161-1.073c2.27-0.299,4.481-0.829,6.537-1.901c0.649-0.338,1.24-0.722,1.707-1.288
			c0.014,6.241,0.041,12.48,0.031,18.721c-0.002,0.769-0.249,1.535-0.301,2.308c-0.102,1.536-0.077,1.564,1.367,2.057
			c2.494,0.853,5.004,1.657,7.492,2.522c7.185,2.494,14.29,5.201,21.381,7.943c0.068,0.783-0.707,0.656-1.06,0.984
			c-0.539,0.729-1.355,0.713-2.119,0.709c-5.796-0.031-11.582-0.516-17.383-0.379c-1.143-0.072-5.067-0.262-6.793-0.729
			c-2.894-0.497-5.696-1.561-8.461-2.494c-3.471-1.175-5.07-3.958-5.23-7.42c-0.158-3.398-0.265-6.819,0.241-10.221
			C235.238,232.147,235.119,230.928,235.134,229.73z"/>
		<path style="fill-rule:evenodd;clip-rule:evenodd;fill:#FFC3A7;" d="M319.581,386.02c0.647,0.001,1.3-0.033,1.944,0.01
			c2.239,0.142,4.338-0.299,6.283-1.428c-0.089,1.629,0.363,3.204,0.473,4.814c0.097,1.443,0.984,2.466,1.891,3.544
			c2.072,2.47,3.991,5.068,5.972,7.613c0.529,0.775,0.373,1.486-0.249,2.103c-0.735,0.729-1.616,0.75-2.493,0.322
			c-4.735-2.316-9.49-4.606-13.048-8.696C320.322,391.521,319.843,388.779,319.581,386.02z"/>
		<path style="fill-rule:evenodd;clip-rule:evenodd;fill:#263A76;" d="M290.324,410.53c-1.354,1.284-2.109,1.399-3.819,0.695
			c-0.532-0.219-0.938-0.751-1.596-0.665c-2.479-0.89-4.269-2.776-6.266-4.357c-0.607-0.48-1.128-1.073-1.659-1.641
			c-0.751-0.802-1.491-1.451-2.758-1.351c-1.059,0.083-2.007-0.607-1.942-1.694c0.172-2.927,0.828-5.75,2.718-8.131
			c1.225-0.063,1.558,0.934,2.034,1.739c2.235,3.78,5.601,6.449,9.094,9.51c0.053-1.378-0.49-2.182-0.786-3.055
			c-0.391-1.159-1.329-2.167-1.005-3.529c0.468,0.184,0.758,0.564,1.065,0.934c1.887,2.272,3.383,4.795,4.753,7.4
			C290.877,407.754,290.967,409.119,290.324,410.53z"/>
		<path style="fill-rule:evenodd;clip-rule:evenodd;fill:#263A76;" d="M320.353,394.302c0.738-0.21,1.112,0.334,1.492,0.773
			c2.172,2.515,5.084,3.949,7.93,5.477c1.16,0.622,2.336,1.22,3.518,1.805c1.863,0.92,2.408,0.635,2.786-1.427
			c0.022-0.118,0.043-0.236,0.064-0.354c1.015,0.765,1.794,1.754,2.584,2.731c0.383,0.477,0.62,1.017,0.72,1.625
			c0.37,2.323-1.029,3.782-3.347,3.36c-2.43-0.442-4.692-1.438-6.962-2.373c-1.946-0.804-3.757-1.857-5.476-3.074
			c-0.408-0.287-0.803-0.605-1.162,0.075c-0.451,0.857-1.124,0.406-1.73,0.255c-0.691-0.173-0.943-0.668-0.93-1.347
			C319.89,399.31,319.764,396.782,320.353,394.302z"/>
		<path style="fill-rule:evenodd;clip-rule:evenodd;fill:#818181;" d="M213.157,320.371c-0.538-0.122-1.072-0.081-1.6,0.057
			c-1.36,0.352-2.706,0.267-4.082,0.026c-1.597-0.28-3.224-0.121-4.839-0.112c-0.646-0.111-1.289-0.236-1.937-0.333
			c-2.323-0.351-3.42-1.674-3.306-4.061c0.023-0.476,0.186-0.944-0.202-1.346c6.666-0.031,13.332-0.13,19.997,0.018
			c0.915,2.204,0.274,4.636-1.53,5.672C214.857,320.75,214.012,321.061,213.157,320.371z"/>
		<path style="fill-rule:evenodd;clip-rule:evenodd;fill:#FFC3A7;" d="M284.339,398.052c0.691,1.586,1.392,3.166,2.068,4.757
			c0.185,0.439,0.319,0.902,0.434,1.364c0.087,0.356,0.065,0.727-0.289,0.957c-0.382,0.249-0.664,0.024-0.943-0.226
			c-1.115-0.991-2.29-1.925-3.346-2.975c-2.236-2.228-4.703-4.273-6.017-7.273c-0.217-0.492-0.532-0.941-1.096-1.12
			c-0.328-1.946,0.397-3.561,1.574-5.037c1.521,1.022,3.243,1.474,5.023,1.757c0.59,0.094,1.192,0.112,1.735,0.402
			C282.731,393.242,283.606,395.639,284.339,398.052z"/>
		<path style="fill-rule:evenodd;clip-rule:evenodd;fill:#273B76;" d="M178.142,401.841c0.794,0.123,0.583,0.751,0.635,1.252
			c0.129,1.247,0.495,1.668,1.677,1.944c0.115,0.026,0.235,0.036,0.352,0.055c2.758,0.424,3.146,0.221,4.176-2.182
			c0.705,1.246,0.947,2.582,0.776,3.996c-0.286,2.355-2.251,4.297-4.493,4.443c-2.554,0.169-4.485-1.297-5.083-3.868
			c-0.504-2.172,0.095-4.022,1.657-5.586C177.945,401.907,178.047,401.889,178.142,401.841z"/>
		<path style="fill-rule:evenodd;clip-rule:evenodd;fill:#E3A285;" d="M222.181,181.033c-1.831,1.285-3.972,1.546-6.102,1.809
			c-0.71,0.087-1.419,0.082-2.132,0.258c-1.564,0.386-3.073-0.293-4.618-0.391c-0.822-0.052-1.665-0.268-2.431-0.578
			c-0.853-0.346-0.965,0.331-1.306,0.735c-0.033-1.554-0.065-3.108-0.099-4.662c1.988,0.711,4.04,0.994,6.149,1.06
			c3.422,0.105,6.809-0.141,10.175-0.732C221.726,179.396,222.141,180.188,222.181,181.033z"/>
		<path style="fill-rule:evenodd;clip-rule:evenodd;fill:#E5D2FF;" d="M340.867,224.355c-3.539,0.519-5.9-2.993-5.849-6.157
			c0.06-3.689,2.783-6.368,6.54-6.413c3.138-0.037,5.966,2.501,5.817,6.37C347.227,222.059,344.919,224.366,340.867,224.355z"/>
		<path style="fill-rule:evenodd;clip-rule:evenodd;fill:#273B77;" d="M231.892,405.749c0.21,0.961,0.035,2.142,1.223,2.593
			c1.362,0.516,2.793,0.64,4.213,0.261c0.847-0.225,0.789-1.28,1.406-1.748c1.076,1.778,0.883,3.571-0.034,5.316
			c-0.754,1.436-1.997,2.258-3.634,2.253c-1.664-0.006-3.031-0.711-3.899-2.182C229.966,410.209,230.271,407.606,231.892,405.749z"
			/>
		<path style="fill-rule:evenodd;clip-rule:evenodd;fill:#F3F4F6;" d="M240.849,163.669c-0.258-0.434-0.08-0.766,0.249-1.064
			c1.198-0.138,1.733-0.922,2.001-2.003c0.42-1.694,0.742-3.402,0.856-5.145c0.042-0.663,0.051-1.329,0.543-1.856
			c0.139-0.599-0.189-1.293,0.367-1.82c0.579-0.029,0.347,0.674,0.733,0.806c-0.029,2.695-0.03,5.391-0.684,8.032
			c-0.115,0.464-0.231,0.93-0.374,1.386C243.915,164.001,242.931,164.441,240.849,163.669z"/>
		<path style="fill-rule:evenodd;clip-rule:evenodd;fill:#F5F6F8;" d="M183.53,155.501c0.386-0.214,0.247-0.793,0.798-1.035
			c0.559,0.692-0.272,1.453,0.049,2.118c0.705,1.433,0.361,3.034,0.72,4.527c0.193,0.803,0.311,1.63,0.464,2.445
			c0.269,1.418,0.937,1.973,2.325,1.24c0.396,0.259,0.512,0.683,0.645,1.096c-0.113,0.137-0.219,0.282-0.342,0.409
			c-1.413,1.468-2.716,1.271-3.629-0.578c-0.643-1.302-0.838-2.72-1-4.146C183.33,159.551,183.637,157.525,183.53,155.501z"/>
		<path style="fill-rule:evenodd;clip-rule:evenodd;fill:#C56648;" d="M195.793,246.216c-1.008-0.12-2.015-0.249-3.024-0.358
			c-0.831-0.09-1.367-0.427-1.24-1.373c0.007-0.058-0.002-0.119-0.001-0.179c0.059-5.391-0.599-10.761-0.457-16.152
			c0.039-1.484-0.635-2.949-0.096-4.44C193.934,230.924,195.522,238.43,195.793,246.216z"/>
		<path style="fill-rule:evenodd;clip-rule:evenodd;fill:#B73C67;" d="M278.115,303.352c0.37,1.094,0.351,2.189,0.023,3.289
			C278.131,305.543,278.123,304.447,278.115,303.352z"/>
		<path style="fill-rule:evenodd;clip-rule:evenodd;fill:#FFFFFF;" d="M215.473,168.093c-2.794,0.253-5.996-2.057-6.867-4.347
			c-0.576-1.517-0.343-1.824,1.224-1.66c3.102,0.324,6.217,0.139,9.326,0.206c0.659,0.014,1.323-0.026,1.974,0.051
			c0.844,0.099,1.054,0.435,0.746,1.21C220.895,166.028,218.824,168.286,215.473,168.093z"/>
		<path style="fill-rule:evenodd;clip-rule:evenodd;fill:#2D407A;" d="M187.886,164.796c-0.351,0.544-0.581,1.398-1.309,1.337
			c-0.888-0.074-1.098-0.992-1.333-1.73c-0.811-2.546-0.915-5.175-0.868-7.82c0.747-0.034,1.079,0.412,1.195,1.068
			C186.018,160.14,186.998,162.453,187.886,164.796z"/>
		<path style="fill-rule:evenodd;clip-rule:evenodd;fill:#2C3F79;" d="M244.498,153.601c0.126,2.813-0.32,5.552-1.14,8.229
			c-0.4,1.306-0.803,1.409-2.261,0.776c0.881-2.693,1.944-5.337,2.294-8.175C243.481,153.716,243.906,153.578,244.498,153.601z"/>
		<path style="fill-rule:evenodd;clip-rule:evenodd;fill:#2C3F78;" d="M203.381,156.074c0.008,1.183-0.868,2.156-1.93,2.144
			c-1.009-0.011-1.896-0.936-1.905-1.99c-0.01-1.11,0.935-2.014,2.076-1.985C202.684,154.27,203.373,154.987,203.381,156.074z"/>
		<path style="fill-rule:evenodd;clip-rule:evenodd;fill:#2B3E78;" d="M227.62,157.536c-0.957,0.03-1.811-0.809-1.83-1.797
			c-0.019-0.983,0.771-1.889,1.705-1.955c0.971-0.069,1.847,0.713,1.908,1.707C229.47,156.555,228.641,157.505,227.62,157.536z"/>
		<path style="fill-rule:evenodd;clip-rule:evenodd;fill:#DCB1F0;" d="M238.421,401.159c0.58,0.78,0.225,1.674,0.304,2.515
			C238.149,402.892,238.483,402.003,238.421,401.159z"/>
		<path style="fill-rule:evenodd;clip-rule:evenodd;fill:#B73C67;" d="M293.261,308.037c-0.017-1.111-0.15-2.233,0.278-3.308
			C293.534,305.84,293.847,306.977,293.261,308.037z"/>
		<path style="fill-rule:evenodd;clip-rule:evenodd;fill:#993457;" d="M216.473,264.284c0.515,2.251,1.848,4.271,3.598,5.763
			c1.73,1.474,3.764,2.311,5.928,2.926c4.42,1.257,9.223,1.906,13.809,1.379c0.948-0.109,1.907-0.271,2.843-0.515
			c-0.415-0.022-0.808-0.102-1.118-0.47c-1.198-1.42-2.673-2.588-3.695-4.172c-2.096-3.247-3.526-6.822-5.113-10.318
			c-0.293-0.646-0.387-1.383-0.573-2.079c-0.101-0.891-0.724-1.175-1.495-1.267c-1.018-0.12-2.036-0.066-3.055-0.004
			c-2.742,0.165-5.483,0.247-8.225,0.293c-0.592,0.652-1.139,1.346-1.622,2.084C216.501,259.818,215.955,262.022,216.473,264.284z"
			/>
	</g>
	<g>
		<path style="fill-rule:evenodd;clip-rule:evenodd;fill:#263A76;" d="M110.387,255.685c0.658-0.027,1.317-0.08,1.976-0.08
			c115.831-0.003,231.664-0.005,347.495,0.002c2.658,0,2.244-0.34,2.276,2.3c0.021,1.742,0.014,3.487-0.003,5.229
			c-0.006,0.396,0.16,0.854-0.255,1.169c-3.716,0.315-7.44,0.101-11.157,0.135c-105.353,0.978-210.709,0.2-316.062,0.348
			c-7.727,0.009-15.472-0.306-23.21-0.343c-0.611-0.002-1.264,0.074-1.229-0.858C110.313,260.953,110.016,258.311,110.387,255.685z"
			/>
		<path style="fill-rule:evenodd;clip-rule:evenodd;fill:#263A76;" d="M405.969,268.267c6.99,19.174,13.984,38.347,20.971,57.521
			c6.229,17.088,12.445,34.182,18.675,51.269c4.523,12.407,9.061,24.809,13.578,37.218c0.217,0.596,0.648,1.168,0.382,1.953
			c-1.706,0.217-3.443,0.065-5.173,0.093c-0.73,0.012-0.804-0.559-0.99-1.07c-1.378-3.777-2.781-7.545-4.158-11.321
			c-6.676-18.325-13.347-36.652-20.024-54.978c-6.448-17.703-12.903-35.406-19.358-53.108c-2.81-7.713-5.626-15.423-8.511-23.329
			c-1.05,1.967-1.596,3.931-2.288,5.826c-8.159,22.318-16.298,44.646-24.428,66.978c-6.939,19.055-13.858,38.119-20.792,57.176
			c-1.519,4.177-3.104,8.327-4.569,12.521c-0.365,1.044-0.88,1.421-1.943,1.334c-1.484-0.122-2.986,0.129-4.639-0.186
			c0.72-1.993,1.406-3.904,2.102-5.811c6.43-17.652,12.858-35.307,19.295-52.956c6.932-19.006,13.873-38.007,20.808-57.012
			c3.743-10.262,7.478-20.527,11.221-30.792c0.122-0.338,0.273-0.666,0.41-0.997c0.118-0.768,0.615-1.143,1.341-1.191
			c2.199-0.143,4.4-0.162,6.598,0.02C405.074,267.473,405.634,267.695,405.969,268.267z"/>
		<path style="fill-rule:evenodd;clip-rule:evenodd;fill:#263A76;" d="M177.223,268.267c6.496,17.819,12.99,35.641,19.484,53.463
			c6.247,17.145,12.491,34.293,18.742,51.435c4.998,13.705,10.006,27.405,14.998,41.111c0.217,0.597,0.652,1.167,0.383,1.952
			c-1.707,0.217-3.442,0.065-5.173,0.093c-0.729,0.012-0.803-0.56-0.989-1.07c-1.393-3.836-2.807-7.663-4.205-11.496
			c-6.66-18.268-13.318-36.535-19.977-54.804c-6.453-17.702-12.905-35.405-19.359-53.108c-2.812-7.712-5.627-15.423-8.511-23.325
			c-1.052,1.962-1.596,3.928-2.288,5.821c-8.16,22.319-16.297,44.648-24.428,66.978c-6.938,19.057-13.858,38.12-20.793,57.178
			c-1.519,4.177-3.104,8.327-4.568,12.521c-0.364,1.046-0.881,1.421-1.944,1.334c-1.483-0.122-2.987,0.129-4.638-0.186
			c0.72-1.993,1.405-3.904,2.1-5.811c6.431-17.652,12.86-35.307,19.297-52.955c7.61-20.866,15.229-41.728,22.841-62.592
			c3.065-8.404,6.122-16.81,9.185-25.213c0.123-0.339,0.274-0.666,0.412-0.997c0.106-0.666,0.49-1.107,1.159-1.155
			c2.365-0.174,4.735-0.284,7.091,0.104C176.509,267.621,176.944,267.839,177.223,268.267z"/>
		<path style="fill-rule:evenodd;clip-rule:evenodd;fill:#385092;" d="M177.223,268.267c-2.606-0.631-5.258-0.28-7.889-0.395
			c-0.684-0.03-1.131,0.265-1.544,0.723c-0.397-0.827-1.159-0.478-1.754-0.48c-5.647-0.028-11.294-0.017-16.943-0.017
			c-5.528,0-11.055,0-16.582-0.001c-0.42,0-0.842-0.012-1.262-0.003c-0.636,0.015-0.994-0.191-1.01-0.922
			c-0.018-0.822,0.383-1.883-0.23-2.411c-0.72-0.622-1.842-0.226-2.786-0.229c-5.227-0.026-10.454-0.007-15.681-0.017
			c-1.497-0.003-1.512-0.024-1.522-1.466c-0.015-2.103-0.016-4.205,0.01-6.31c0.003-0.362-0.241-0.868,0.356-1.055
			c0.002,2.404-0.013,4.81,0.014,7.216c0.014,1.271,0.057,1.28,1.335,1.332c0.239,0.01,0.481,0.003,0.721,0.003
			c109.438,0.015,218.878,0.028,328.316,0.039c6.314,0,12.628-0.029,18.94-0.035c0.721-0.002,1.441,0.041,2.163,0.065
			c-0.606,0.399-1.284,0.2-1.924,0.203c-5.396,0.019-10.793,0.006-16.188,0.015c-1.451,0.004-1.451,0.025-1.479,1.481
			c-0.004,0.241,0.005,0.479-0.002,0.72c-0.037,1.335-0.037,1.364-1.442,1.367c-4.676,0.016-9.351,0.007-14.028,0.007
			c-6.234,0-12.47-0.002-18.704,0.003c-0.716,0-1.442-0.09-2.14,0.166c-2.79-0.752-5.636-0.241-8.453-0.36
			c-0.491-0.021-0.638,0.48-0.98,0.688c-0.103-0.331-0.344-0.471-0.672-0.478c-0.602-0.01-1.201-0.018-1.801-0.018
			c-71.445-0.001-142.891-0.002-214.334,0.004C178.892,268.103,178.044,267.984,177.223,268.267z"/>
	</g>
</g>
<g id="DESIGNED_BY_FREEPIK">
	<g>
		<g id="XMLID_319_">
			<g id="XMLID_338_">
				<path id="XMLID_346_" style="fill:#1C1C1B;" d="M260.103,465.465c-0.432,0.443-0.803,0.932-1.107,1.453l-0.465-0.24
					c-0.068-0.297-0.35-0.502-0.66-0.467c-0.33,0.039-0.566,0.34-0.529,0.67c0.039,0.332,0.34,0.568,0.67,0.529
					c0.066-0.008,0.127-0.025,0.184-0.053l0.451,0.234c-0.25,0.555-0.432,1.139-0.539,1.744l0.748,0.131
					c0.229-1.305,0.85-2.506,1.791-3.473L260.103,465.465z"/>
				<path id="XMLID_345_" style="fill:#1C1C1B;" d="M265.592,463.164c-0.172,0-0.342,0.006-0.51,0.016l-0.074-0.625
					c0.188-0.15,0.297-0.389,0.266-0.645c-0.045-0.393-0.402-0.674-0.795-0.629c-0.393,0.047-0.674,0.402-0.627,0.797
					c0.029,0.254,0.189,0.461,0.404,0.563l0.072,0.625c-0.713,0.115-1.402,0.332-2.059,0.645l0.326,0.686
					c0.936-0.447,1.941-0.674,2.996-0.674c0.496,0,0.992,0.053,1.475,0.158l0.16-0.742
					C266.691,463.223,266.143,463.164,265.592,463.164z"/>
				<path id="XMLID_344_" style="fill:#1C1C1B;" d="M272.193,465.711c0.332-0.041,0.566-0.342,0.525-0.672
					c-0.039-0.332-0.34-0.566-0.672-0.525c-0.309,0.037-0.535,0.303-0.529,0.607l-0.416,0.363c-0.418-0.43-0.891-0.813-1.408-1.139
					l-0.404,0.641c1.135,0.715,2.021,1.727,2.564,2.926l0.69-0.313c-0.25-0.555-0.566-1.072-0.941-1.545l0.402-0.352
					C272.064,465.715,272.129,465.719,272.193,465.711z"/>
				<path id="XMLID_343_" style="fill:#1C1C1B;" d="M265.045,473.371c-0.387,0.023-0.775,0.035-1.158,0.035
					c-0.879,0-1.732-0.061-2.478-0.18c-0.391-0.061-0.846-0.154-1.27-0.291c1.047,1.861,3.068,3.125,5.389,3.125
					c2.855,0,5.262-1.916,5.949-4.504c-0.682,0.449-1.506,0.826-2.459,1.123C267.838,473.047,266.463,473.287,265.045,473.371z"/>
				<path id="XMLID_339_" style="fill:#1C1C1B;" d="M265.592,464.68c-3.352,0-6.08,2.666-6.08,5.943c0,0.426,0.047,0.85,0.137,1.262
					c0.674,0.482,2.707,0.891,5.348,0.73c2.881-0.174,5.297-0.957,6.672-2.158c-0.004-0.195-0.02-0.391-0.045-0.582
					C271.244,466.914,268.65,464.68,265.592,464.68z M263.432,471.195c-1.02,0-1.85-0.83-1.85-1.85c0-1.022,0.83-1.852,1.85-1.852
					c1.02,0,1.85,0.83,1.85,1.852C265.281,470.365,264.451,471.195,263.432,471.195z M268.17,470.287
					c-0.75,0-1.361-0.611-1.361-1.361s0.611-1.359,1.361-1.359s1.359,0.609,1.359,1.359S268.92,470.287,268.17,470.287z"/>
			</g>
			<path id="XMLID_336_" style="fill:#1C1C1B;" d="M281.596,466.547c-0.295-0.115-0.807-0.309-1.383-0.238
				c-0.551,0.07-0.844,0.342-0.844,1.008v0.865h2.229v1.717h-2.229v5.455h-1.932v-5.455h-1.34v-1.717h1.34v-0.889
				c0-1.68,0.895-2.781,2.568-2.781c0.643,0,1.156,0.121,1.59,0.307V466.547z"/>
			<path id="XMLID_334_" style="fill:#1C1C1B;" d="M286.297,469.879c-0.176-0.029-0.357-0.047-0.525-0.047
				c-0.894,0-1.51,0.549-1.51,1.613v3.908h-1.932v-7.172h1.873v0.785c0.451-0.674,1.139-0.977,2.02-0.977
				c0.414,0,0.848,0.127,1.096,0.336L286.297,469.879z"/>
			<path id="XMLID_331_" style="fill:#1C1C1B;" d="M293.965,471.758c0,0.221-0.016,0.488-0.037,0.65h-5.084
				c0.207,1.037,0.932,1.488,1.842,1.488c0.623,0,1.295-0.252,1.815-0.69l1.133,1.244c-0.814,0.748-1.852,1.088-3.057,1.088
				c-2.199,0-3.725-1.496-3.725-3.752c0-2.258,1.48-3.797,3.627-3.797C292.543,467.99,293.957,469.522,293.965,471.758z
				 M288.852,471.092h3.174c-0.178-0.918-0.732-1.438-1.561-1.438C289.555,469.654,289.021,470.203,288.852,471.092z"/>
			<path id="XMLID_328_" style="fill:#1C1C1B;" d="M301.619,471.758c0,0.221-0.016,0.488-0.037,0.65h-5.086
				c0.207,1.037,0.934,1.488,1.844,1.488c0.621,0,1.295-0.252,1.813-0.69l1.133,1.244c-0.814,0.748-1.85,1.088-3.057,1.088
				c-2.199,0-3.723-1.496-3.723-3.752c0-2.258,1.48-3.797,3.627-3.797C300.197,467.99,301.611,469.522,301.619,471.758z
				 M296.504,471.092h3.176c-0.178-0.918-0.734-1.438-1.563-1.438C297.207,469.654,296.674,470.203,296.504,471.092z"/>
			<path id="XMLID_325_" style="fill:#1C1C1B;" d="M309.965,471.764c0,2.154-1.496,3.775-3.473,3.775
				c-0.961,0-1.643-0.377-2.109-0.932v3.707h-1.924v-10.133h1.887v0.793c0.467-0.586,1.154-0.984,2.139-0.984
				C308.469,467.99,309.965,469.611,309.965,471.764z M304.287,471.764c0,1.133,0.748,1.977,1.844,1.977
				c1.139,0,1.85-0.881,1.85-1.977c0-1.094-0.711-1.975-1.85-1.975C305.035,469.789,304.287,470.633,304.287,471.764z"/>
			<path id="XMLID_322_" style="fill:#1C1C1B;" d="M313.068,465.836c0,0.695-0.541,1.229-1.236,1.229
				c-0.697,0-1.229-0.533-1.229-1.229c0-0.695,0.531-1.244,1.229-1.244C312.527,464.592,313.068,465.141,313.068,465.836z
				 M312.809,475.353h-1.932v-7.172h1.932V475.353z"/>
			<path id="XMLID_320_" style="fill:#1C1C1B;" d="M316.031,470.736l2.703-2.555h2.367l-3.479,3.375l3.502,3.797h-2.377l-2.717-2.9
				v2.9H314.1v-10.658h1.932V470.736z"/>
		</g>
		<g>
			<path style="fill:#1C1C1B;" d="M184.412,475.289v-1.055c-0.527,0.719-1.391,1.23-2.387,1.23c-1.846,0-3.149-1.406-3.149-3.705
				c0-2.256,1.289-3.721,3.149-3.721c0.952,0,1.816,0.469,2.387,1.244v-3.764h1.099v9.77H184.412z M184.412,473.371v-3.209
				c-0.395-0.615-1.245-1.143-2.124-1.143c-1.42,0-2.27,1.172-2.27,2.74c0,1.566,0.85,2.725,2.27,2.725
				C183.167,474.484,184.017,473.986,184.412,473.371z"/>
			<path style="fill:#1C1C1B;" d="M186.932,471.744c0-2.051,1.465-3.705,3.486-3.705c2.139,0,3.398,1.67,3.398,3.793v0.279h-5.727
				c0.088,1.332,1.025,2.445,2.549,2.445c0.806,0,1.626-0.322,2.182-0.893l0.527,0.717c-0.703,0.703-1.655,1.084-2.812,1.084
				C188.44,475.465,186.932,473.957,186.932,471.744z M190.403,468.947c-1.509,0-2.256,1.273-2.314,2.357h4.643
				C192.718,470.25,192.015,468.947,190.403,468.947z"/>
			<path style="fill:#1C1C1B;" d="M194.607,474.352l0.571-0.791c0.469,0.543,1.362,1.012,2.329,1.012c1.085,0,1.67-0.514,1.67-1.217
				c0-1.713-4.38-0.658-4.38-3.281c0-1.098,0.952-2.035,2.636-2.035c1.202,0,2.051,0.453,2.623,1.025l-0.513,0.762
				c-0.424-0.514-1.201-0.895-2.109-0.895c-0.966,0-1.567,0.484-1.567,1.113c0,1.553,4.379,0.527,4.379,3.281
				c0,1.188-0.952,2.139-2.783,2.139C196.306,475.465,195.325,475.113,194.607,474.352z"/>
			<path style="fill:#1C1C1B;" d="M201.477,466.471c0-0.41,0.337-0.746,0.732-0.746c0.41,0,0.747,0.336,0.747,0.746
				c0,0.41-0.337,0.732-0.747,0.732C201.814,467.203,201.477,466.881,201.477,466.471z M201.667,475.289v-7.074h1.099v7.074H201.667
				z"/>
			<path style="fill:#1C1C1B;" d="M204.582,477.105l0.556-0.82c0.586,0.703,1.289,0.967,2.3,0.967c1.172,0,2.27-0.57,2.27-2.123
				v-1.012c-0.513,0.719-1.377,1.26-2.373,1.26c-1.846,0-3.149-1.377-3.149-3.662c0-2.27,1.289-3.676,3.149-3.676
				c0.952,0,1.802,0.469,2.373,1.244v-1.068h1.099v6.869c0,2.344-1.641,3.076-3.369,3.076
				C206.237,478.16,205.416,477.926,204.582,477.105z M209.708,473.254v-3.092c-0.381-0.615-1.23-1.143-2.109-1.143
				c-1.421,0-2.27,1.129-2.27,2.695c0,1.553,0.849,2.695,2.27,2.695C208.478,474.41,209.328,473.869,209.708,473.254z"/>
			<path style="fill:#1C1C1B;" d="M217.413,475.289v-4.629c0-1.244-0.63-1.641-1.582-1.641c-0.864,0-1.685,0.527-2.094,1.1v5.17
				h-1.099v-7.074h1.099v1.025c0.498-0.586,1.464-1.201,2.519-1.201c1.48,0,2.256,0.746,2.256,2.285v4.965H217.413z"/>
			<path style="fill:#1C1C1B;" d="M219.932,471.744c0-2.051,1.465-3.705,3.486-3.705c2.139,0,3.398,1.67,3.398,3.793v0.279h-5.727
				c0.088,1.332,1.025,2.445,2.548,2.445c0.806,0,1.626-0.322,2.183-0.893l0.527,0.717c-0.703,0.703-1.655,1.084-2.813,1.084
				C221.441,475.465,219.932,473.957,219.932,471.744z M223.404,468.947c-1.509,0-2.256,1.273-2.314,2.357h4.643
				C225.718,470.25,225.015,468.947,223.404,468.947z"/>
			<path style="fill:#1C1C1B;" d="M233.35,475.289v-1.055c-0.527,0.719-1.392,1.23-2.388,1.23c-1.845,0-3.149-1.406-3.149-3.705
				c0-2.256,1.289-3.721,3.149-3.721c0.952,0,1.817,0.469,2.388,1.244v-3.764h1.098v9.77H233.35z M233.35,473.371v-3.209
				c-0.396-0.615-1.245-1.143-2.124-1.143c-1.421,0-2.27,1.172-2.27,2.74c0,1.566,0.85,2.725,2.27,2.725
				C232.105,474.484,232.954,473.986,233.35,473.371z"/>
			<path style="fill:#1C1C1B;" d="M239.692,475.289v-9.77h1.099v3.764c0.571-0.775,1.421-1.244,2.388-1.244
				c1.845,0,3.149,1.465,3.149,3.721c0,2.299-1.304,3.705-3.149,3.705c-0.996,0-1.86-0.512-2.388-1.23v1.055H239.692z
				 M242.9,474.484c1.436,0,2.285-1.158,2.285-2.725c0-1.568-0.85-2.74-2.285-2.74c-0.864,0-1.729,0.527-2.109,1.143v3.209
				C241.171,473.986,242.036,474.484,242.9,474.484z"/>
			<path style="fill:#1C1C1B;" d="M247.528,477.063c0.161,0.072,0.425,0.117,0.601,0.117c0.483,0,0.806-0.162,1.055-0.748
				l0.469-1.068l-2.959-7.148h1.187l2.358,5.801l2.344-5.801h1.201l-3.545,8.51c-0.425,1.025-1.143,1.422-2.08,1.436
				c-0.234,0-0.601-0.043-0.806-0.104L247.528,477.063z"/>
		</g>
	</g>
</g>
</svg>
