<?xml version="1.0" standalone="no"?>
<svg xmlns:xlink="http://www.w3.org/1999/xlink" id="wave" style="transform:rotate(0deg); transition: 0.3s" viewBox="0 0 1440 380" version="1.1" xmlns="http://www.w3.org/2000/svg"><defs><linearGradient id="sw-gradient-0" x1="0" x2="0" y1="1" y2="0"><stop stop-color="rgba(87.767, 199.731, 240.177, 1)" offset="0%"/><stop stop-color="rgba(11, 107.584, 255, 1)" offset="100%"/></linearGradient></defs><path style="transform:translate(0, 0px); opacity:1" fill="url(#sw-gradient-0)" d="M0,190L24,171C48,152,96,114,144,139.3C192,165,240,253,288,278.7C336,304,384,266,432,228C480,190,528,152,576,145.7C624,139,672,165,720,158.3C768,152,816,114,864,114C912,114,960,152,1008,139.3C1056,127,1104,63,1152,57C1200,51,1248,101,1296,145.7C1344,190,1392,228,1440,202.7C1488,177,1536,89,1584,50.7C1632,13,1680,25,1728,82.3C1776,139,1824,241,1872,234.3C1920,228,1968,114,2016,57C2064,0,2112,0,2160,25.3C2208,51,2256,101,2304,139.3C2352,177,2400,203,2448,234.3C2496,266,2544,304,2592,278.7C2640,253,2688,165,2736,139.3C2784,114,2832,152,2880,196.3C2928,241,2976,291,3024,291.3C3072,291,3120,241,3168,228C3216,215,3264,241,3312,259.7C3360,279,3408,291,3432,297.7L3456,304L3456,380L3432,380C3408,380,3360,380,3312,380C3264,380,3216,380,3168,380C3120,380,3072,380,3024,380C2976,380,2928,380,2880,380C2832,380,2784,380,2736,380C2688,380,2640,380,2592,380C2544,380,2496,380,2448,380C2400,380,2352,380,2304,380C2256,380,2208,380,2160,380C2112,380,2064,380,2016,380C1968,380,1920,380,1872,380C1824,380,1776,380,1728,380C1680,380,1632,380,1584,380C1536,380,1488,380,1440,380C1392,380,1344,380,1296,380C1248,380,1200,380,1152,380C1104,380,1056,380,1008,380C960,380,912,380,864,380C816,380,768,380,720,380C672,380,624,380,576,380C528,380,480,380,432,380C384,380,336,380,288,380C240,380,192,380,144,380C96,380,48,380,24,380L0,380Z"/></svg>